<?xml version="1.0" encoding="UTF-8" standalone="no"?>
<svg xmlns:xlink="http://www.w3.org/1999/xlink" height="62.4px" width="42.5px" xmlns="http://www.w3.org/2000/svg">
  <g transform="matrix(1.0, 0.0, 0.0, 1.0, 21.25, 31.2)">
    <use height="62.4" transform="matrix(1.0, 0.0, 0.0, 1.0, -21.25, -31.2)" width="42.5" xlink:href="#shape0"/>
  </g>
  <defs>
    <g id="shape0" transform="matrix(1.0, 0.0, 0.0, 1.0, 21.25, 31.2)">
      <path d="M13.35 -22.3 L13.3 -22.25 13.45 -21.95 14.65 -17.55 14.65 -17.2 14.15 -13.55 13.15 -8.65 12.95 -7.65 Q12.25 -4.85 10.8 -2.35 9.15 0.65 6.45 2.7 3.4 5.0 -0.3 6.25 L-0.8 6.35 -5.65 6.55 Q-9.85 6.35 -13.85 4.9 -15.0 4.5 -15.8 3.7 -18.75 -7.4 -20.25 -18.65 -5.4 -27.4 10.9 -30.2 L13.35 -22.3" fill="#4f5660" fill-rule="evenodd" stroke="none"/>
      <path d="M12.95 -7.65 L13.15 -8.65 14.15 -13.55 14.65 -17.2 14.75 -17.2 Q20.0 2.35 20.25 17.0 18.65 17.25 17.1 17.95 L15.7 18.6 12.2 19.9 Q13.45 18.2 13.5 16.1 L14.0 8.5 Q14.25 5.8 13.5 3.35 13.4 3.15 13.45 2.95 L13.3 -4.65 13.3 -6.05 Q13.3 -7.05 12.95 -7.65" fill="#c5c6ca" fill-rule="evenodd" stroke="none"/>
      <path d="M-5.65 6.55 L-0.8 6.35 -0.3 6.25 Q3.4 5.0 6.45 2.7 9.15 0.65 10.8 -2.35 12.25 -4.85 12.95 -7.65 13.3 -7.05 13.3 -6.05 L13.3 -4.65 13.45 2.95 Q13.4 3.15 13.5 3.35 14.25 5.8 14.0 8.5 L13.5 16.1 Q13.45 18.2 12.2 19.9 L12.0 20.15 10.75 21.45 Q9.05 23.05 6.8 23.75 L6.15 23.95 Q4.65 24.35 3.4 23.65 L-0.7 23.95 -2.2 23.4 Q-4.55 22.25 -5.2 19.7 L-5.45 18.95 -5.95 17.35 Q-6.55 15.05 -6.45 12.6 L-6.05 8.8 -5.65 6.55" fill="#a2a3a8" fill-rule="evenodd" stroke="none"/>
      <path d="M12.2 19.9 L15.7 18.6 17.1 17.95 Q18.65 17.25 20.25 17.0 L20.2 21.95 Q6.8 28.8 -6.65 30.2 L-8.4 26.0 Q-7.95 25.65 -7.25 25.45 L-4.3 24.9 -1.65 24.3 -0.7 23.95 3.4 23.65 Q4.65 24.35 6.15 23.95 L6.8 23.75 Q9.05 23.05 10.75 21.45 L12.0 20.15 12.2 19.9" fill="#6b6e75" fill-rule="evenodd" stroke="none"/>
      <path d="M-15.8 3.7 Q-15.0 4.5 -13.85 4.9 -9.85 6.35 -5.65 6.55 L-6.05 8.8 -6.45 12.6 Q-6.55 15.05 -5.95 17.35 L-5.45 18.95 -5.2 19.7 Q-4.55 22.25 -2.2 23.4 L-0.7 23.95 -1.65 24.3 -4.3 24.9 -7.25 25.45 Q-7.95 25.65 -8.4 26.0 -12.85 14.9 -15.8 3.7" fill="#a1a2a7" fill-rule="evenodd" stroke="none"/>
      <path d="M13.35 -22.3 L10.9 -30.2 Q-5.4 -27.4 -20.25 -18.65 M14.65 -17.55 L13.45 -21.95 13.35 -22.3 M14.75 -17.2 L14.65 -17.55 M20.25 17.0 Q20.0 2.35 14.75 -17.2 M-6.65 30.2 Q6.8 28.8 20.2 21.95 L20.25 17.0" fill="none" stroke="#000000" stroke-linecap="round" stroke-linejoin="round" stroke-width="2.0"/>
      <path d="M-20.25 -18.65 Q-18.75 -7.4 -15.8 3.7 -12.85 14.9 -8.4 26.0 L-6.65 30.2" fill="none" stroke="#000000" stroke-linecap="round" stroke-linejoin="round" stroke-width="2.0"/>
    </g>
  </defs>
</svg>
