<?xml version="1.0" encoding="UTF-8" standalone="no"?>
<svg xmlns:xlink="http://www.w3.org/1999/xlink" height="50.95px" width="33.5px" xmlns="http://www.w3.org/2000/svg">
  <g transform="matrix(1.0, 0.0, 0.0, 1.0, 16.75, 25.5)">
    <use height="50.95" transform="matrix(1.0, 0.0, 0.0, 1.0, -16.75, -25.5)" width="33.5" xlink:href="#shape0"/>
  </g>
  <defs>
    <g id="shape0" transform="matrix(1.0, 0.0, 0.0, 1.0, 16.75, 25.5)">
      <path d="M-15.35 -2.95 L-11.9 -4.5 -9.3 -5.55 -7.0 -5.8 Q-4.45 -6.9 -1.55 -6.95 0.75 -7.0 2.8 -8.15 5.2 -9.45 7.8 -10.0 10.55 -10.6 12.95 -12.05 L14.85 -13.1 Q16.1 -9.25 15.65 -5.45 15.2 -1.2 13.4 1.7 L10.8 0.45 4.65 -1.9 Q3.95 -2.15 3.65 -2.8 L0.65 -3.25 -5.75 2.6 -9.0 5.95 Q-13.45 3.3 -15.35 -2.95" fill="#989ca5" fill-rule="evenodd" stroke="none"/>
      <path d="M14.85 -13.1 L12.95 -12.05 Q10.55 -10.6 7.8 -10.0 5.2 -9.45 2.8 -8.15 0.75 -7.0 -1.55 -6.95 -4.45 -6.9 -7.0 -5.8 L-9.3 -5.55 -11.9 -4.5 -15.35 -2.95 -15.75 -4.4 Q-16.2 -20.15 -2.8 -23.65 6.05 -26.65 11.75 -19.05 13.8 -16.05 14.85 -13.1" fill="#d2d3d8" fill-rule="evenodd" stroke="none"/>
      <path d="M-9.0 5.95 L-5.75 2.6 0.65 -3.25 3.65 -2.8 Q3.95 -2.15 4.65 -1.9 L10.8 0.45 13.4 1.7 Q10.2 6.7 2.9 7.55 -4.4 8.7 -9.0 5.95" fill="#c7c8cc" fill-rule="evenodd" stroke="none"/>
      <path d="M-15.35 -2.95 Q-13.45 3.3 -9.0 5.95 -4.4 8.7 2.9 7.55 10.2 6.7 13.4 1.7 15.2 -1.2 15.65 -5.45 16.1 -9.25 14.85 -13.1 13.8 -16.05 11.75 -19.05 6.05 -26.65 -2.8 -23.65 M-15.75 -4.4 L-15.35 -2.95" fill="none" stroke="#000000" stroke-linecap="round" stroke-linejoin="round" stroke-width="2.0"/>
      <path d="M-2.8 -23.65 Q-16.2 -20.15 -15.75 -4.4" fill="none" stroke="#000000" stroke-linecap="round" stroke-linejoin="round" stroke-width="2.0"/>
      <path d="M3.95 -11.95 L5.3 -13.3 Q6.75 -14.6 6.8 -16.65 L6.75 -17.35 Q9.3 -15.25 10.3 -10.8 12.1 -2.9 5.35 1.8 -0.15 5.0 -4.65 2.85 L-4.6 2.7 Q-1.95 1.8 -1.05 -1.0 -0.45 -1.6 -0.25 -2.35 L0.2 -2.35 Q4.1 -3.6 5.55 -7.1 L5.55 -7.2 5.55 -7.3 5.5 -8.25 Q5.25 -10.6 3.95 -11.95" fill="#ffffff" fill-rule="evenodd" stroke="none"/>
      <path d="M6.75 -17.35 L6.8 -16.65 Q6.75 -14.6 5.3 -13.3 L3.95 -11.95 Q2.7 -13.15 0.6 -13.5 -1.05 -13.55 -2.25 -12.95 L-2.5 -14.4 Q-2.75 -16.8 -1.85 -18.85 L-1.6 -19.2 -1.45 -19.25 Q3.75 -19.95 6.75 -17.35 M-0.25 -2.35 Q-0.45 -1.6 -1.05 -1.0 -1.95 1.8 -4.6 2.7 L-4.75 2.75 Q-6.8 1.7 -8.65 -0.5 L-8.9 -1.15 Q-8.55 -2.9 -7.2 -4.25 L-5.2 -5.55 Q-4.75 -4.4 -3.9 -3.65 -2.6 -2.5 -0.25 -2.35" fill="#7c8187" fill-rule="evenodd" stroke="none"/>
      <path d="M3.95 -11.95 Q5.25 -10.6 5.5 -8.25 2.6 -8.3 0.2 -9.8 -0.85 -9.7 -1.2 -8.65 L-1.25 -8.3 -1.15 -6.95 Q-1.7 -4.6 -3.9 -3.65 -4.75 -4.4 -5.2 -5.55 L-5.55 -6.9 Q-5.0 -11.6 -2.25 -12.95 -1.05 -13.55 0.6 -13.5 2.7 -13.15 3.95 -11.95" fill="#d9dade" fill-rule="evenodd" stroke="none"/>
      <path d="M5.5 -8.25 L5.55 -7.3 5.55 -7.2 5.55 -7.1 Q4.1 -3.6 0.2 -2.35 L-0.25 -2.35 Q-2.6 -2.5 -3.9 -3.65 -1.7 -4.6 -1.15 -6.95 L-1.25 -8.3 -1.2 -8.65 Q-0.85 -9.7 0.2 -9.8 2.6 -8.3 5.5 -8.25 M-1.6 -19.2 L-1.85 -18.85 Q-2.75 -16.8 -2.5 -14.4 L-2.25 -12.95 Q-5.0 -11.6 -5.55 -6.9 L-5.2 -5.55 -7.2 -4.25 Q-8.55 -2.9 -8.9 -1.15 -13.8 -14.6 -1.6 -19.2" fill="#000000" fill-rule="evenodd" stroke="none"/>
      <path d="M3.95 -11.95 Q5.25 -10.6 5.5 -8.25 L5.55 -7.3 5.55 -7.2 5.55 -7.1 Q4.1 -3.6 0.2 -2.35 L-0.25 -2.35 Q-2.6 -2.5 -3.9 -3.65 M-2.25 -12.95 Q-1.05 -13.55 0.6 -13.5 2.7 -13.15 3.95 -11.95 M-5.2 -5.55 L-5.55 -6.9 Q-5.0 -11.6 -2.25 -12.95 M-5.2 -5.55 Q-4.75 -4.4 -3.9 -3.65" fill="none" stroke="#000000" stroke-linecap="round" stroke-linejoin="round" stroke-width="2.0"/>
      <path d="M-4.65 2.85 Q-0.15 5.0 5.35 1.8 12.1 -2.9 10.3 -10.8 9.3 -15.25 6.75 -17.35 3.75 -19.95 -1.45 -19.25 L-1.6 -19.2 M-4.75 2.75 Q-6.8 1.7 -8.65 -0.5 L-8.9 -1.15 Q-13.8 -14.6 -1.6 -19.2 M-4.75 2.75 L-4.65 2.85" fill="none" stroke="#000000" stroke-linecap="round" stroke-linejoin="round" stroke-width="2.0"/>
      <path d="M9.6 17.4 L11.8 15.4 Q12.4 14.8 13.15 14.35 L14.0 13.8 Q14.9 19.0 11.35 21.85 8.1 24.45 4.9 24.45 L5.55 22.8 5.75 22.0 Q6.0 20.15 7.5 18.95 L9.6 17.4" fill="#a4a7ac" fill-rule="evenodd" stroke="none"/>
      <path d="M14.0 13.8 L13.15 14.35 Q12.4 14.8 11.8 15.4 L9.6 17.4 10.7 15.95 10.6 14.5 Q10.35 12.7 9.45 11.45 10.95 10.55 12.65 9.95 L13.3 11.15 13.9 13.15 14.0 13.8 M7.5 18.95 Q6.0 20.15 5.75 22.0 L5.55 22.8 4.9 24.45 3.4 24.3 2.35 24.05 Q-1.35 22.2 -2.0 17.35 L-1.75 17.3 Q-0.65 16.2 0.9 16.1 L1.1 16.0 1.25 16.95 Q1.65 18.3 2.9 19.15 L3.15 19.25 4.85 19.9 6.0 19.6 7.5 18.95 M3.2 19.15 L3.15 19.25 2.9 19.15 3.2 19.15" fill="#818890" fill-rule="evenodd" stroke="none"/>
      <path d="M12.65 9.95 Q10.95 10.55 9.45 11.45 L8.1 10.1 6.9 9.45 Q3.5 9.45 1.65 13.05 L1.3 13.75 Q1.05 14.95 1.1 16.0 L0.9 16.1 Q-0.65 16.2 -1.75 17.3 L-2.0 17.35 Q-2.3 15.4 -2.1 12.95 -0.2 6.9 5.2 6.3 10.2 6.2 12.65 9.95" fill="#d2d3d7" fill-rule="evenodd" stroke="none"/>
      <path d="M9.6 17.4 L7.5 18.95 6.0 19.6 4.85 19.9 3.15 19.25 3.2 19.15 3.7 18.95 Q5.05 17.6 5.75 15.9 6.75 15.8 6.95 14.85 L6.95 13.75 7.6 12.75 8.2 11.85 8.35 10.8 8.1 10.1 9.45 11.45 Q10.35 12.7 10.6 14.5 L10.7 15.95 9.6 17.4" fill="#fbfbfd" fill-rule="evenodd" stroke="none"/>
      <path d="M8.1 10.1 L8.35 10.8 8.2 11.85 7.6 12.75 6.95 13.75 6.8 13.45 Q6.4 12.9 5.5 12.75 5.15 12.8 4.75 13.0 3.8 13.55 4.0 14.6 L4.05 14.7 Q4.25 16.05 5.7 15.9 L5.75 15.9 Q5.05 17.6 3.7 18.95 L3.2 19.15 2.9 19.15 Q1.65 18.3 1.25 16.95 L1.1 16.0 Q1.05 14.95 1.3 13.75 L1.65 13.05 Q3.5 9.45 6.9 9.45 L8.1 10.1" fill="#585b62" fill-rule="evenodd" stroke="none"/>
      <path d="M6.95 13.75 L6.95 14.85 Q6.75 15.8 5.75 15.9 L5.7 15.9 Q4.25 16.05 4.05 14.7 L4.0 14.6 Q3.8 13.55 4.75 13.0 5.15 12.8 5.5 12.75 6.4 12.9 6.8 13.45 L6.95 13.75" fill="#000000" fill-rule="evenodd" stroke="none"/>
      <path d="M9.6 17.4 L7.5 18.95 M4.9 24.45 Q8.1 24.45 11.35 21.85 14.9 19.0 14.0 13.8 L13.9 13.15 13.3 11.15 M9.45 11.45 Q10.35 12.7 10.6 14.5 L10.7 15.95 9.6 17.4 M8.1 10.1 L9.45 11.45 M3.15 19.25 L4.85 19.9 6.0 19.6 7.5 18.95 M2.9 19.15 L3.15 19.25 M2.9 19.15 Q1.65 18.3 1.25 16.95 L1.1 16.0 Q1.05 14.95 1.3 13.75 L1.65 13.05 Q3.5 9.45 6.9 9.45 L8.1 10.1 M-2.0 17.35 Q-1.35 22.2 2.35 24.05 L3.4 24.3 4.9 24.45 M-2.0 17.35 Q-2.3 15.4 -2.1 12.95 -0.2 6.9 5.2 6.3" fill="none" stroke="#000000" stroke-linecap="round" stroke-linejoin="round" stroke-width="2.0"/>
      <path d="M13.3 11.15 L12.65 9.95 M5.2 6.3 Q10.2 6.2 12.65 9.95" fill="none" stroke="#000000" stroke-linecap="round" stroke-linejoin="round" stroke-width="2.0"/>
    </g>
  </defs>
</svg>
