<?xml version="1.0" encoding="UTF-8" standalone="no"?>
<svg xmlns:xlink="http://www.w3.org/1999/xlink" height="26.9px" width="25.85px" xmlns="http://www.w3.org/2000/svg">
  <g transform="matrix(1.0, 0.0, 0.0, 1.0, 12.9, 13.45)">
    <use height="26.9" transform="matrix(1.0, 0.0, 0.0, 1.0, -12.9, -13.45)" width="25.85" xlink:href="#shape0"/>
  </g>
  <defs>
    <g id="shape0" transform="matrix(1.0, 0.0, 0.0, 1.0, 12.9, 13.45)">
      <path d="M8.55 -8.35 L8.45 -8.3 8.65 -8.25 11.05 -4.3 7.0 -4.3 6.4 -5.55 Q4.2 -9.45 1.2 -9.75 L1.65 -12.2 Q5.55 -11.55 8.55 -8.35 M-11.0 3.85 L-11.55 2.65 Q-12.4 0.2 -11.3 -2.7 L-7.95 -2.15 Q-8.55 0.3 -8.3 2.3 L-8.55 2.3 -9.45 2.35 -9.4 3.4 -11.0 3.85" fill="#b1b4bd" fill-rule="evenodd" stroke="none"/>
      <path d="M-11.3 -2.7 Q-10.25 -6.5 -7.7 -9.3 -3.95 -13.35 1.65 -12.2 L1.2 -9.75 -0.25 -9.7 Q-3.0 -9.3 -6.35 -6.25 L-7.95 -2.15 -11.3 -2.7" fill="#d0d1d6" fill-rule="evenodd" stroke="none"/>
      <path d="M-6.35 -6.25 Q-3.0 -9.3 -0.25 -9.7 L1.2 -9.75 Q4.2 -9.45 6.4 -5.55 L7.0 -4.3 7.1 -4.15 Q6.95 -3.8 7.05 -3.35 6.2 -3.25 5.95 -2.45 L5.85 -2.05 3.75 -1.65 1.8 -3.65 -0.35 -3.75 -1.85 -2.4 -6.35 -6.25" fill="#000000" fill-rule="evenodd" stroke="none"/>
      <path d="M11.05 -4.3 Q14.15 4.25 6.5 10.35 -5.0 16.75 -11.0 3.85 L-9.4 3.4 -9.45 2.35 -8.55 2.3 -8.3 2.35 Q-8.2 3.5 -7.75 4.45 L-7.2 5.55 Q-5.95 7.55 -3.75 8.5 L-2.75 8.95 Q7.4 11.0 8.6 0.0 L7.1 -4.15 7.0 -4.3 11.05 -4.3" fill="#88899b" fill-rule="evenodd" stroke="none"/>
      <path d="M5.85 -2.05 L5.95 -2.45 Q6.2 -3.25 7.05 -3.35 6.95 -3.8 7.1 -4.15 L8.6 0.0 Q7.4 11.0 -2.75 8.95 L-3.75 8.5 Q-1.65 7.1 -0.75 4.7 L0.0 3.25 1.9 2.55 2.4 3.15 2.5 4.35 2.6 4.25 Q5.3 1.6 5.85 -2.05" fill="#fffdff" fill-rule="evenodd" stroke="none"/>
      <path d="M1.8 -3.65 L3.75 -1.65 3.8 -1.05 Q3.85 1.25 1.9 2.55 L0.0 3.25 Q-1.0 3.25 -1.7 2.5 -2.45 1.75 -2.45 0.65 -0.7 0.65 0.55 -0.6 1.8 -1.85 1.8 -3.65" fill="#7d7c81" fill-rule="evenodd" stroke="none"/>
      <path d="M-1.85 -2.4 L-0.35 -3.75 1.8 -3.65 Q1.8 -1.85 0.55 -0.6 -0.7 0.65 -2.45 0.65 L-2.5 0.25 -1.85 -2.4" fill="#cfcdce" fill-rule="evenodd" stroke="none"/>
      <path d="M-6.35 -6.25 L-1.85 -2.4 -2.5 0.25 -7.75 4.45 Q-8.2 3.5 -8.3 2.35 L-8.3 2.3 Q-8.55 0.3 -7.95 -2.15 L-6.35 -6.25 M3.75 -1.65 L5.85 -2.05 Q5.3 1.6 2.6 4.25 L2.5 4.35 2.4 3.15 1.9 2.55 Q3.85 1.25 3.8 -1.05 L3.75 -1.65 M-8.55 2.3 L-8.3 2.3 -8.3 2.35 -8.55 2.3" fill="#ada3a1" fill-rule="evenodd" stroke="none"/>
      <path d="M-2.5 0.25 L-2.45 0.65 Q-2.45 1.75 -1.7 2.5 -1.0 3.25 0.0 3.25 L-0.75 4.7 Q-1.65 7.1 -3.75 8.5 -5.95 7.55 -7.2 5.55 L-7.75 4.45 -2.5 0.25" fill="#645653" fill-rule="evenodd" stroke="none"/>
      <path d="M8.65 -8.25 L11.05 -4.3 Q14.15 4.25 6.5 10.35 -5.0 16.75 -11.0 3.85 L-11.55 2.65 Q-12.4 0.2 -11.3 -2.7 -10.25 -6.5 -7.7 -9.3 -3.95 -13.35 1.65 -12.2 5.55 -11.55 8.55 -8.35 M1.2 -9.75 L-0.25 -9.7 Q-3.0 -9.3 -6.35 -6.25 M-1.85 -2.4 L-0.35 -3.75 1.8 -3.65 3.75 -1.65 M7.0 -4.3 L6.4 -5.55 Q4.2 -9.45 1.2 -9.75 M1.9 2.55 Q3.85 1.25 3.8 -1.05 L3.75 -1.65 M-2.5 0.25 L-2.45 0.65 M-1.85 -2.4 L-2.5 0.25 M-7.75 4.45 L-7.2 5.55 Q-5.95 7.55 -3.75 8.5 L-2.75 8.95 Q7.4 11.0 8.6 0.0 L7.1 -4.15 M0.0 3.25 Q-1.0 3.25 -1.7 2.5 -2.45 1.75 -2.45 0.65 M1.9 2.55 L0.0 3.25 M-8.3 2.3 Q-8.55 0.3 -7.95 -2.15 L-6.35 -6.25 M-8.3 2.35 L-8.3 2.3 M-7.75 4.45 Q-8.2 3.5 -8.3 2.35" fill="none" stroke="#000000" stroke-linecap="round" stroke-linejoin="round" stroke-width="2.0"/>
    </g>
  </defs>
</svg>
