<?xml version="1.0" encoding="UTF-8" standalone="no"?>
<svg xmlns:xlink="http://www.w3.org/1999/xlink" height="37.35px" width="32.55px" xmlns="http://www.w3.org/2000/svg">
  <g transform="matrix(1.0, 0.0, 0.0, 1.0, 16.3, 18.7)">
    <use height="37.35" transform="matrix(1.0, 0.0, 0.0, 1.0, -16.3, -18.7)" width="32.55" xlink:href="#shape0"/>
  </g>
  <defs>
    <g id="shape0" transform="matrix(1.0, 0.0, 0.0, 1.0, 16.3, 18.7)">
      <path d="M-7.0 11.8 Q-2.6 14.9 2.6 13.85 7.85 12.7 10.6 8.15 12.7 4.6 12.2 0.5 L15.1 0.5 Q15.9 6.0 12.95 10.55 9.9 15.45 4.45 17.1 -0.8 18.55 -5.55 16.0 -10.1 13.7 -12.75 9.35 -15.35 5.1 -15.3 0.15 L-12.7 0.45 -11.9 4.95 -7.0 11.8 M-11.85 4.9 L-11.9 4.95 -11.85 4.9" fill="#babcc8" fill-rule="evenodd" stroke="none"/>
      <path d="M12.15 -0.55 L5.25 -0.45 4.7 -2.6 2.95 -5.35 Q1.7 -6.3 -0.1 -6.2 L-5.75 -13.3 Q-4.4 -14.2 -2.85 -14.95 8.35 -17.05 11.85 -2.65 L12.15 -0.55 M-0.05 -3.55 L0.3 -3.35 Q0.7 -2.8 0.05 -2.2 L-0.95 -2.85 -0.65 -3.35 -0.05 -3.55 M-1.1 0.95 L-0.95 -0.7 -0.55 -1.7 Q-0.35 -1.95 -0.15 -1.6 L0.2 -0.5 0.3 1.0 -1.1 0.95" fill="#000000" fill-rule="evenodd" stroke="none"/>
      <path d="M12.2 0.5 Q12.7 4.6 10.6 8.15 7.85 12.7 2.6 13.85 -2.6 14.9 -7.0 11.8 -4.0 8.3 -3.25 3.75 L-3.15 3.25 Q0.7 6.2 4.0 3.05 5.5 1.6 5.25 -0.45 L12.15 -0.55 12.2 0.5" fill="#f1eff0" fill-rule="evenodd" stroke="none"/>
      <path d="M15.1 0.5 L12.2 0.5 12.15 -0.55 11.85 -2.65 Q8.35 -17.05 -2.85 -14.95 -4.4 -14.2 -5.75 -13.3 L-7.3 -12.1 -9.95 -13.6 Q-8.0 -15.6 -5.3 -17.3 9.05 -19.75 13.35 -6.4 14.75 -2.7 15.1 0.5" fill="#bebec0" fill-rule="evenodd" stroke="none"/>
      <path d="M-11.85 4.9 L-11.9 4.95 -12.7 0.45 Q-12.65 -4.4 -10.65 -8.0 -9.4 -10.3 -7.3 -12.1 L-5.75 -13.3 -0.1 -6.2 -3.8 -5.35 -5.05 -0.4 -11.85 4.9" fill="#b6aeab" fill-rule="evenodd" stroke="none"/>
      <path d="M-12.7 0.45 L-15.3 0.15 Q-15.5 -7.95 -9.95 -13.6 L-7.3 -12.1 Q-9.4 -10.3 -10.65 -8.0 -12.65 -4.4 -12.7 0.45" fill="#fefeff" fill-rule="evenodd" stroke="none"/>
      <path d="M-0.1 -6.2 Q1.7 -6.3 2.95 -5.35 L4.7 -2.6 Q2.4 -2.8 1.75 -0.5 1.35 0.8 0.3 1.0 L0.2 -0.5 -0.15 -1.6 Q-0.35 -1.95 -0.55 -1.7 L-0.95 -0.7 -1.1 0.95 -2.8 0.9 -2.2 -0.2 -2.7 -1.45 -0.95 -2.85 0.05 -2.2 Q0.7 -2.8 0.3 -3.35 L-0.05 -3.55 -2.95 -3.85 -2.95 0.9 -4.75 0.75 -5.05 -0.4 -3.8 -5.35 -0.1 -6.2" fill="#b6b8c5" fill-rule="evenodd" stroke="none"/>
      <path d="M-2.95 0.9 L-2.95 -3.85 -0.05 -3.55 -0.65 -3.35 -0.95 -2.85 -2.7 -1.45 -2.2 -0.2 -2.8 0.9 -2.95 0.9" fill="#fffffd" fill-rule="evenodd" stroke="none"/>
      <path d="M5.25 -0.45 Q5.5 1.6 4.0 3.05 0.7 6.2 -3.15 3.25 L-4.75 0.75 -2.95 0.9 -2.8 0.9 -1.1 0.95 0.3 1.0 Q1.35 0.8 1.75 -0.5 2.4 -2.8 4.7 -2.6 L5.25 -0.45" fill="#808490" fill-rule="evenodd" stroke="none"/>
      <path d="M-7.0 11.8 L-11.9 4.95 -11.85 4.9 -5.05 -0.4 -4.75 0.75 -3.15 3.25 -3.25 3.75 Q-4.0 8.3 -7.0 11.8" fill="#665b59" fill-rule="evenodd" stroke="none"/>
      <path d="M12.2 0.5 Q12.7 4.6 10.6 8.15 7.85 12.7 2.6 13.85 -2.6 14.9 -7.0 11.8 L-11.9 4.95 -12.7 0.45 Q-12.65 -4.4 -10.65 -8.0 -9.4 -10.3 -7.3 -12.1 L-5.75 -13.3 Q-4.4 -14.2 -2.85 -14.95 8.35 -17.05 11.85 -2.65 L12.15 -0.55 M-15.3 0.15 Q-15.35 5.1 -12.75 9.35 -10.1 13.7 -5.55 16.0 -0.8 18.55 4.45 17.1 9.9 15.45 12.95 10.55 15.9 6.0 15.1 0.5 14.75 -2.7 13.35 -6.4 9.05 -19.75 -5.3 -17.3 -8.0 -15.6 -9.95 -13.6 -15.5 -7.95 -15.3 0.15 M12.2 0.5 L12.15 -0.55 M5.25 -0.45 Q5.5 1.6 4.0 3.05 0.7 6.2 -3.15 3.25 L-4.75 0.75 M-0.1 -6.2 Q1.7 -6.3 2.95 -5.35 L4.7 -2.6 5.25 -0.45 M-0.1 -6.2 L-3.8 -5.35 -5.05 -0.4 -4.75 0.75" fill="none" stroke="#000000" stroke-linecap="round" stroke-linejoin="round" stroke-width="2.0"/>
    </g>
  </defs>
</svg>
