<?xml version="1.0" encoding="UTF-8" standalone="no"?>
<svg xmlns:xlink="http://www.w3.org/1999/xlink" height="111.45px" width="86.85px" xmlns="http://www.w3.org/2000/svg">
  <g transform="matrix(1.0, 0.0, 0.0, 1.0, 43.4, 55.7)">
    <use height="111.45" transform="matrix(1.0, 0.0, 0.0, 1.0, -43.4, -55.7)" width="86.85" xlink:href="#sprite0"/>
    <use height="91.5" transform="matrix(1.0, 0.0, 0.0, 1.0, -18.5, -45.1)" width="51.55" xlink:href="#sprite1"/>
  </g>
  <defs>
    <g id="sprite0" transform="matrix(1.0, 0.0, 0.0, 1.0, 43.4, 55.7)">
      <use height="111.45" transform="matrix(1.0, 0.0, 0.0, 1.0, -43.4, -55.7)" width="86.85" xlink:href="#shape0"/>
    </g>
    <g id="shape0" transform="matrix(1.0, 0.0, 0.0, 1.0, 43.4, 55.7)">
      <path d="M-18.7 -32.55 L-17.75 -28.5 -15.25 -18.25 -15.0 -17.2 -13.4 -11.1 -11.0 -2.1 -9.05 4.75 -8.65 6.1 -8.25 7.5 -8.05 8.25 -5.7 16.05 -3.25 23.85 -1.4 29.55 -0.9 31.2 0.5 35.45 1.3 37.8 2.5 41.3 3.2 43.3 3.85 45.15 4.4 46.7 4.65 46.65 5.2 46.5 6.0 46.3 Q16.5 43.6 27.1 39.0 L31.5 36.95 Q31.95 37.8 33.15 38.0 L34.6 38.25 35.35 38.4 Q24.25 46.0 5.6 49.8 L5.5 49.75 4.55 47.05 1.75 48.7 -6.05 27.9 -9.55 17.8 -16.85 -5.9 -23.45 -31.85 -18.95 -33.65 -18.7 -32.55 M23.35 -24.5 L15.45 -48.5 20.1 -49.15 28.05 -24.3 29.0 -21.05 30.6 -15.3 32.3 -8.95 34.15 -1.7 34.95 1.55 35.4 3.5 37.85 14.8 38.55 18.15 39.65 24.0 40.95 31.35 41.0 31.55 41.05 31.65 41.5 34.4 41.85 36.85 42.05 38.1 42.35 40.05 42.45 40.65 39.0 42.5 38.1 36.35 38.25 36.2 29.95 -1.15 23.35 -24.5 M4.55 47.05 L4.4 46.7 4.55 47.05" fill="#999596" fill-rule="evenodd" stroke="none"/>
      <path d="M15.45 -48.5 L15.2 -49.2 11.55 -49.25 8.9 -48.9 Q-1.0 -47.25 -20.15 -39.0 L-19.2 -34.7 -18.95 -33.65 -23.45 -31.85 -25.35 -40.45 -25.4 -40.55 -21.55 -42.2 Q-1.75 -50.6 18.1 -54.7 L20.1 -49.15 15.45 -48.5" fill="#eeeced" fill-rule="evenodd" stroke="none"/>
      <path d="M12.85 -45.65 Q7.3 -43.95 2.25 -40.8 -0.75 -38.9 -4.0 -37.6 -10.9 -34.9 -17.95 -32.8 L-18.7 -32.55 -18.95 -33.65 -19.2 -34.7 -20.15 -39.0 Q-1.0 -47.25 8.9 -48.9 L11.55 -49.25 12.85 -45.65" fill="#070709" fill-rule="evenodd" stroke="none"/>
      <path d="M19.8 -25.4 L12.85 -45.65 11.55 -49.25 15.2 -49.2 15.45 -48.5 23.35 -24.5 20.25 -24.05 19.8 -25.4 M-24.05 27.95 L-23.65 27.95 -22.15 27.8 Q-19.95 27.0 -18.0 25.8 L-15.65 24.1 -15.2 23.85 -15.3 24.5 Q-15.55 25.8 -15.15 27.0 L-12.3 34.55 -12.15 34.95 -9.2 42.55 -6.1 49.7 -10.8 46.45 Q-15.65 42.8 -20.4 38.0 L-24.05 27.95" fill="#000000" fill-rule="evenodd" stroke="none"/>
      <path d="M12.85 -45.65 L19.8 -25.4 Q17.85 -22.95 15.7 -20.8 L15.15 -20.55 13.9 -20.3 Q10.65 -16.3 8.6 -11.6 7.3 -8.6 6.5 -5.4 L6.0 -3.3 5.55 -1.65 5.6 -1.6 5.5 -1.45 5.1 0.0 2.35 10.0 1.25 13.45 1.55 15.25 2.0 17.6 Q3.45 18.5 3.95 20.0 4.3 21.05 4.15 22.4 L4.25 23.35 6.1 30.0 6.5 31.6 Q7.0 33.3 6.55 34.95 L6.45 35.35 6.55 35.55 6.9 36.1 7.1 36.45 Q8.6 36.8 9.25 37.95 L18.45 36.0 Q19.2 35.15 21.0 34.9 24.0 34.5 26.6 33.1 27.3 30.6 29.25 28.65 31.05 26.85 33.35 26.35 L35.0 34.5 33.4 36.05 31.5 36.95 27.1 39.0 Q16.5 43.6 6.0 46.3 L5.2 46.5 4.65 46.65 4.4 46.7 3.85 45.15 3.2 43.3 2.5 41.3 1.3 37.8 0.5 35.45 -0.9 31.2 -1.4 29.55 -3.25 23.85 -5.7 16.05 -8.05 8.25 -8.25 7.5 -8.65 6.1 -9.05 4.75 -11.0 -2.1 -13.4 -11.1 -15.0 -17.2 -15.25 -18.25 -17.75 -28.5 -18.7 -32.55 -17.95 -32.8 Q-10.9 -34.9 -4.0 -37.6 -0.75 -38.9 2.25 -40.8 7.3 -43.95 12.85 -45.65" fill="#6f7281" fill-rule="evenodd" stroke="none"/>
      <path d="M33.35 26.35 Q31.05 26.85 29.25 28.65 27.3 30.6 26.6 33.1 24.0 34.5 21.0 34.9 19.2 35.15 18.45 36.0 L9.25 37.95 Q8.6 36.8 7.1 36.45 L6.9 36.1 6.55 35.55 6.45 35.35 6.55 34.95 Q7.0 33.3 6.5 31.6 L6.1 30.0 4.25 23.35 4.15 22.4 Q4.3 21.05 3.95 20.0 3.45 18.5 2.0 17.6 L1.55 15.25 1.25 13.45 2.35 10.0 5.1 0.0 5.5 -1.45 5.6 -1.6 5.55 -1.65 6.0 -3.3 6.5 -5.4 Q7.3 -8.6 8.6 -11.6 10.65 -16.3 13.9 -20.3 L15.15 -20.55 15.7 -20.8 Q17.85 -22.95 19.8 -25.4 L20.25 -24.05 26.4 -2.95 33.35 26.35" fill="#838695" fill-rule="evenodd" stroke="none"/>
      <path d="M31.5 36.95 L33.4 36.05 35.1 35.15 35.0 34.5 33.35 26.35 26.4 -2.95 27.4 -2.95 29.95 -1.15 38.25 36.2 38.05 36.15 38.1 36.35 35.35 38.4 34.6 38.25 33.15 38.0 Q31.95 37.8 31.5 36.95 M38.05 36.15 L35.1 35.15 38.05 36.15" fill="#747273" fill-rule="evenodd" stroke="none"/>
      <path d="M20.25 -24.05 L23.35 -24.5 29.95 -1.15 27.4 -2.95 26.4 -2.95 20.25 -24.05" fill="#3a393f" fill-rule="evenodd" stroke="none"/>
      <path d="M33.4 36.05 L35.0 34.5 35.1 35.15 33.4 36.05 M38.25 36.2 L38.1 36.35 39.0 42.5 Q24.1 50.2 7.3 54.1 L4.2 54.75 2.65 50.9 2.6 50.75 2.65 50.9 2.45 50.75 2.6 50.75 1.75 48.7 4.55 47.05 5.5 49.75 5.6 49.8 Q24.25 46.0 35.35 38.4 L38.1 36.35 38.05 36.15 38.25 36.2" fill="#777374" fill-rule="evenodd" stroke="none"/>
      <path d="M1.75 48.7 L2.6 50.75 2.45 50.75 -9.2 42.55 -12.15 34.95 -6.05 27.9 1.75 48.7" fill="#4e525b" fill-rule="evenodd" stroke="none"/>
      <path d="M2.65 50.9 L4.2 54.75 -6.1 49.7 -9.2 42.55 2.45 50.75 2.65 50.9" fill="#464952" fill-rule="evenodd" stroke="none"/>
      <path d="M18.1 -54.7 Q-1.75 -50.6 -21.55 -42.2 L-25.4 -40.55 -25.35 -40.45 -25.4 -40.55 -30.0 -40.55 -42.4 -40.55 -34.7 -43.6 -31.25 -44.8 Q-21.85 -48.0 -12.05 -50.0 L18.1 -54.7" fill="#232325" fill-rule="evenodd" stroke="none"/>
      <path d="M-25.35 -40.45 L-23.45 -31.85 -16.85 -5.9 -17.05 -5.85 -17.1 -5.9 -17.9 -7.0 Q-18.75 -8.65 -19.05 -10.5 -19.2 -11.3 -19.75 -11.9 L-20.4 -12.65 Q-21.75 -14.35 -22.75 -16.4 L-22.85 -17.35 Q-23.35 -21.1 -25.8 -24.1 L-26.1 -24.55 Q-28.35 -27.8 -28.75 -31.7 L-29.0 -33.65 -29.35 -35.75 -29.85 -39.15 -30.0 -40.55 -25.4 -40.55 -25.35 -40.45 M-12.15 34.95 L-12.3 34.55 -15.15 27.0 Q-15.55 25.8 -15.3 24.5 L-15.2 23.85 -9.55 17.8 -6.05 27.9 -12.15 34.95" fill="#3f3f49" fill-rule="evenodd" stroke="none"/>
      <path d="M-30.0 -40.55 L-29.85 -39.15 -29.35 -35.75 -29.0 -33.65 -28.75 -31.7 Q-28.35 -27.8 -26.1 -24.55 L-25.8 -24.1 Q-23.35 -21.1 -22.85 -17.35 L-22.75 -16.4 Q-21.75 -14.35 -20.4 -12.65 L-19.75 -11.9 Q-19.2 -11.3 -19.05 -10.5 -18.75 -8.65 -17.9 -7.0 L-17.1 -5.9 -17.05 -5.85 -16.85 -5.9 -9.55 17.8 -15.2 23.85 -15.65 24.1 -18.0 25.8 Q-19.95 27.0 -22.15 27.8 L-23.65 27.95 -24.05 27.95 -25.75 23.05 Q-36.55 -8.75 -42.4 -40.55 L-30.0 -40.55" fill="#252932" fill-rule="evenodd" stroke="none"/>
      <path d="M19.8 -25.4 L12.85 -45.65 M-18.7 -32.55 L-17.75 -28.5 -15.25 -18.25 -15.0 -17.2 -13.4 -11.1 -11.0 -2.1 -9.05 4.75 -8.65 6.1 -8.25 7.5 -8.05 8.25 -5.7 16.05 -3.25 23.85 -1.4 29.55 -0.9 31.2 0.5 35.45 1.3 37.8 2.5 41.3 3.2 43.3 3.85 45.15 4.4 46.7 4.65 46.65 5.2 46.5 6.0 46.3 Q16.5 43.6 27.1 39.0 L31.5 36.95 33.4 36.05 35.1 35.15 38.05 36.15 38.25 36.2 38.1 36.35 35.35 38.4 M35.0 34.5 L33.35 26.35 M19.8 -25.4 L20.25 -24.05 26.4 -2.95 33.35 26.35 M23.35 -24.5 L15.45 -48.5 15.2 -49.2 11.55 -49.25 12.85 -45.65 M11.55 -49.25 L8.9 -48.9 Q-1.0 -47.25 -20.15 -39.0 L-19.2 -34.7 -18.95 -33.65 -18.7 -32.55 M23.35 -24.5 L29.95 -1.15 38.25 36.2 M39.0 42.5 L42.45 40.65 42.35 40.05 42.05 38.1 41.85 36.85 41.5 34.4 41.05 31.65 41.0 31.55 40.95 31.35 39.65 24.0 38.55 18.15 37.85 14.8 35.4 3.5 34.95 1.55 34.15 -1.7 32.3 -8.95 30.6 -15.3 29.0 -21.05 28.05 -24.3 20.1 -49.15 18.1 -54.7 Q-1.75 -50.6 -21.55 -42.2 L-25.4 -40.55 -25.35 -40.45 -23.45 -31.85 M4.4 46.7 L4.55 47.05 5.5 49.75 5.6 49.8 Q24.25 46.0 35.35 38.4 M1.75 48.7 L2.6 50.75 2.65 50.9 4.2 54.75 7.3 54.1 Q24.1 50.2 39.0 42.5 M35.0 34.5 L35.1 35.15 M-30.0 -40.55 L-25.4 -40.55 M-16.85 -5.9 L-23.45 -31.85 M18.1 -54.7 L-12.05 -50.0 Q-21.85 -48.0 -31.25 -44.8 L-34.7 -43.6 -42.4 -40.55 -30.0 -40.55 M-24.05 27.95 L-20.4 38.0 Q-15.65 42.8 -10.8 46.45 L-6.1 49.7 M-9.55 17.8 L-16.85 -5.9 M-6.05 27.9 L-9.55 17.8 M-24.05 27.95 L-25.75 23.05 Q-36.55 -8.75 -42.4 -40.55 M1.75 48.7 L-6.05 27.9 M4.2 54.75 L-6.1 49.7" fill="none" stroke="#000000" stroke-linecap="round" stroke-linejoin="round" stroke-width="2.0"/>
    </g>
    <g id="sprite1" transform="matrix(1.0, 0.0, 0.0, 1.0, 25.75, 45.75)">
      <use height="91.5" transform="matrix(1.0, 0.0, 0.0, 1.0, -25.75, -45.75)" width="51.55" xlink:href="#shape1"/>
    </g>
    <g id="shape1" transform="matrix(1.0, 0.0, 0.0, 1.0, 25.75, 45.75)">
      <path d="M-6.45 -41.15 L-8.05 -35.25 -8.15 -34.6 Q-8.35 -31.6 -6.9 -29.05 L-6.4 -27.25 Q-5.9 -25.2 -7.65 -24.4 L-6.9 -21.95 -6.85 -20.8 Q-6.75 -18.45 -8.15 -16.45 L-9.8 -13.2 -10.6 -11.85 -12.8 -7.95 -13.55 -8.4 Q-18.65 -11.75 -21.1 -18.8 -21.6 -24.2 -20.1 -28.65 L-20.05 -28.75 Q-17.55 -36.3 -9.25 -41.1 L-6.45 -41.15 M-6.9 -29.05 Q-13.3 -28.05 -12.7 -21.85 -12.3 -17.55 -8.15 -16.45 -12.3 -17.55 -12.7 -21.85 -13.3 -28.05 -6.9 -29.05 M-0.2 34.35 L-0.95 32.4 Q-2.25 27.15 1.05 22.85 4.5 18.3 10.15 17.6 L12.05 17.6 10.7 20.65 9.2 23.55 Q6.05 24.05 4.6 27.15 3.4 29.7 5.0 32.15 L4.9 32.2 3.15 32.85 0.8 33.85 -0.2 34.35" fill="#1b1b1b" fill-rule="evenodd" stroke="none"/>
      <path d="M2.15 -39.75 Q-1.4 -41.1 -6.45 -41.15 L-9.25 -41.1 Q-17.55 -36.3 -20.05 -28.75 -20.2 -29.6 -23.35 -30.5 -21.85 -35.35 -18.45 -38.75 -14.95 -42.35 -10.25 -44.25 L-4.25 -44.75 Q0.25 -44.75 3.9 -43.2 1.9 -42.25 2.15 -39.75" fill="#fdfdfd" fill-rule="evenodd" stroke="none"/>
      <path d="M9.9 -32.15 Q8.15 -36.75 3.8 -39.0 2.95 -39.4 2.15 -39.75 1.9 -42.25 3.9 -43.2 8.95 -41.05 12.05 -36.6 14.85 -32.55 15.65 -27.8 16.35 -23.45 15.8 -19.05 L15.45 -16.55 14.5 -16.45 Q13.5 -16.55 13.1 -17.4 L11.9 -17.8 Q12.4 -20.85 11.8 -24.5 L9.9 -32.15 M-5.8 33.5 Q-6.1 22.8 -0.2 19.05 L0.35 18.85 8.5 14.55 10.4 15.45 10.15 17.6 Q4.5 18.3 1.05 22.85 -2.25 27.15 -0.95 32.4 L-5.8 33.5 M-3.25 16.9 Q-7.75 14.0 -6.9 8.65 -6.15 3.75 -3.35 -0.6 L-5.2 -0.85 Q-1.6 -4.4 3.45 -4.95 5.6 -5.3 6.6 -3.45 L6.5 -2.45 4.2 -1.1 2.65 -1.4 Q-0.45 0.35 -2.15 3.55 -5.0 9.0 -0.9 13.5 L-0.55 13.8 -2.9 15.85 -3.25 16.9 M-16.45 -5.65 Q-21.95 -10.0 -24.7 -18.1 -25.0 -24.55 -23.6 -29.5 L-23.35 -30.5 Q-20.2 -29.6 -20.05 -28.75 L-20.1 -28.65 Q-21.6 -24.2 -21.1 -18.8 -18.65 -11.75 -13.55 -8.4 L-16.45 -5.65" fill="#d7d8dd" fill-rule="evenodd" stroke="none"/>
      <path d="M-8.05 -35.25 Q-2.6 -34.7 2.05 -31.95 6.1 -29.55 9.9 -32.15 L11.8 -24.5 8.4 -20.9 Q4.9 -16.8 0.2 -14.4 -4.65 -11.95 -9.8 -13.2 L-8.15 -16.45 Q-2.45 -16.25 -0.2 -21.8 1.2 -25.3 -1.4 -28.25 -3.2 -29.95 -6.9 -29.05 -8.35 -31.6 -8.15 -34.6 L-8.05 -35.25 M4.2 -1.1 L6.05 -0.3 Q9.5 1.2 10.85 4.7 L10.5 4.95 7.55 7.05 7.45 6.85 Q7.1 6.0 6.15 5.85 L5.95 5.35 5.05 4.05 2.75 3.5 Q3.95 1.15 2.85 -1.05 L2.65 -1.4 4.2 -1.1 M4.9 32.2 L5.0 32.15 Q7.15 35.05 10.35 33.45 11.15 33.15 11.85 32.35 13.85 29.5 12.15 26.4 L11.65 25.5 Q10.55 23.75 9.2 23.55 L10.7 20.65 16.85 19.15 Q20.95 23.05 20.3 28.4 19.9 31.5 18.25 34.2 L15.1 34.2 Q11.7 37.6 7.8 35.3 5.85 34.2 4.9 32.2" fill="#484743" fill-rule="evenodd" stroke="none"/>
      <path d="M-6.9 -29.05 Q-3.2 -29.95 -1.4 -28.25 L-4.0 -24.3 -4.4 -24.65 -6.9 -21.95 -7.65 -24.4 Q-5.9 -25.2 -6.4 -27.25 L-6.9 -29.05 M2.75 3.5 L5.05 4.05 5.0 4.85 4.15 5.5 Q1.35 4.95 0.25 7.3 0.1 7.55 0.1 7.9 0.1 6.1 0.9 4.8 1.65 3.5 2.75 3.5 M-4.7 -27.9 L-5.0 -27.85 Q-5.5 -27.55 -5.5 -27.0 -5.4 -25.95 -4.5 -25.65 -3.8 -25.45 -3.55 -26.05 -2.85 -27.85 -4.7 -27.9 M11.65 25.5 L10.85 26.85 Q9.85 29.3 7.3 29.55 L6.75 28.35 9.2 23.55 Q10.55 23.75 11.65 25.5" fill="#f4f4f4" fill-rule="evenodd" stroke="none"/>
      <path d="M2.65 -1.4 L2.85 -1.05 Q3.95 1.15 2.75 3.5 1.65 3.5 0.9 4.8 0.1 6.1 0.1 7.9 L1.4 9.7 1.6 9.85 2.85 10.35 Q5.95 9.5 6.15 6.15 L6.15 5.85 Q7.1 6.0 7.45 6.85 L7.55 7.05 Q7.55 9.05 6.0 10.5 4.45 11.9 2.3 11.9 0.95 11.9 0.05 12.4 -0.9 12.85 -0.9 13.5 -5.0 9.0 -2.15 3.55 -0.45 0.35 2.65 -1.4 M-4.7 -27.9 Q-2.85 -27.85 -3.55 -26.05 -3.8 -25.45 -4.5 -25.65 -5.4 -25.95 -5.5 -27.0 -5.5 -27.55 -5.0 -27.85 L-4.7 -27.9 M5.0 32.15 Q3.4 29.7 4.6 27.15 6.05 24.05 9.2 23.55 L6.75 28.35 7.3 29.55 7.2 30.6 5.0 32.15" fill="#000000" fill-rule="evenodd" stroke="none"/>
      <path d="M9.9 -32.15 Q6.1 -29.55 2.05 -31.95 -2.6 -34.7 -8.05 -35.25 L-6.45 -41.15 Q-1.4 -41.1 2.15 -39.75 2.95 -39.4 3.8 -39.0 8.15 -36.75 9.9 -32.15" fill="#7c7774" fill-rule="evenodd" stroke="none"/>
      <path d="M-1.4 -28.25 Q1.2 -25.3 -0.2 -21.8 -2.45 -16.25 -8.15 -16.45 -6.75 -18.45 -6.85 -20.8 L-6.9 -21.95 -4.4 -24.65 -4.0 -24.3 -1.4 -28.25 M5.05 4.05 L5.95 5.35 6.05 6.25 2.0 8.9 1.6 9.75 1.4 9.7 0.1 7.9 Q0.1 7.55 0.25 7.3 1.35 4.95 4.15 5.5 L5.0 4.85 5.05 4.05 M11.65 25.5 L12.15 26.4 Q13.85 29.5 11.85 32.35 9.1 33.1 7.4 30.85 L7.2 30.6 7.3 29.55 Q9.85 29.3 10.85 26.85 L11.65 25.5" fill="#525252" fill-rule="evenodd" stroke="none"/>
      <path d="M11.9 -17.8 L13.1 -17.4 Q13.5 -16.55 14.5 -16.45 L15.45 -16.55 14.35 -13.2 Q12.6 -8.5 8.45 -5.55 10.65 -4.9 12.4 -3.5 16.65 -0.35 16.2 5.1 15.75 10.05 12.2 13.35 L16.75 14.15 Q18.65 14.75 20.15 16.0 24.2 19.2 24.7 24.5 25.2 29.5 23.7 34.25 22.1 39.15 17.65 41.9 13.35 44.65 8.25 44.75 2.85 44.95 -1.5 41.7 -5.8 38.5 -5.8 33.5 L-0.95 32.4 -0.2 34.35 Q3.4 42.25 10.5 39.85 L14.25 38.1 18.25 34.2 Q19.9 31.5 20.3 28.4 20.95 23.05 16.85 19.15 14.85 17.75 12.05 17.6 L10.15 17.6 10.4 15.45 8.5 14.55 0.35 18.85 0.3 18.75 Q-1.5 17.8 -3.25 16.9 L-2.9 15.85 -0.55 13.8 Q5.05 16.75 9.0 11.7 11.5 8.5 10.85 4.7 9.5 1.2 6.05 -0.3 L4.2 -1.1 6.5 -2.45 6.6 -3.45 Q5.6 -5.3 3.45 -4.95 -1.6 -4.4 -5.2 -0.85 -10.0 -1.6 -13.7 -3.75 L-16.45 -5.65 -13.55 -8.4 -12.8 -7.95 Q-6.85 -4.55 2.45 -5.95 10.25 -10.1 11.8 -17.25 L11.9 -17.8" fill="#aeb4bb" fill-rule="evenodd" stroke="none"/>
      <path d="M11.8 -17.25 Q10.25 -10.1 2.45 -5.95 -6.85 -4.55 -12.8 -7.95 L-10.6 -11.85 Q-5.6 -9.95 -0.45 -10.65 4.5 -11.45 8.55 -14.65 L11.8 -17.25 M10.5 4.95 L10.85 4.7 Q11.5 8.5 9.0 11.7 5.05 16.75 -0.55 13.8 L-0.9 13.5 Q-0.9 12.85 0.05 12.4 0.95 11.9 2.3 11.9 8.2 13.5 10.3 7.45 10.75 6.25 10.5 4.95 M-0.2 34.35 L0.8 33.85 Q3.2 37.5 7.3 38.8 L10.5 39.85 Q3.4 42.25 -0.2 34.35" fill="#f0f0f0" fill-rule="evenodd" stroke="none"/>
      <path d="M-9.8 -13.2 Q-4.65 -11.95 0.2 -14.4 4.9 -16.8 8.4 -20.9 L11.8 -24.5 Q12.4 -20.85 11.9 -17.8 L11.8 -17.25 8.55 -14.65 Q4.5 -11.45 -0.45 -10.65 -5.6 -9.95 -10.6 -11.85 L-9.8 -13.2 M0.8 33.85 L3.15 32.85 Q6.45 37.2 12.25 37.85 L14.25 38.1 10.5 39.85 7.3 38.8 Q3.2 37.5 0.8 33.85" fill="#a4a3a1" fill-rule="evenodd" stroke="none"/>
      <path d="M5.95 5.35 L6.15 5.85 6.15 6.15 Q5.95 9.5 2.85 10.35 L1.6 9.85 1.6 9.75 2.0 8.9 6.05 6.25 5.95 5.35 M7.55 7.05 L10.5 4.95 Q10.75 6.25 10.3 7.45 8.2 13.5 2.3 11.9 4.45 11.9 6.0 10.5 7.55 9.05 7.55 7.05 M3.15 32.85 L4.9 32.2 Q5.85 34.2 7.8 35.3 11.7 37.6 15.1 34.2 L18.25 34.2 14.25 38.1 12.25 37.85 Q6.45 37.2 3.15 32.85 M10.7 20.65 L12.05 17.6 Q14.85 17.75 16.85 19.15 L10.7 20.65 M7.2 30.6 L7.4 30.85 Q9.1 33.1 11.85 32.35 11.15 33.15 10.35 33.45 7.15 35.05 5.0 32.15 L7.2 30.6" fill="#918d8a" fill-rule="evenodd" stroke="none"/>
      <path d="M9.9 -32.15 Q8.15 -36.75 3.8 -39.0 2.95 -39.4 2.15 -39.75 -1.4 -41.1 -6.45 -41.15 L-9.25 -41.1 Q-17.55 -36.3 -20.05 -28.75 L-20.1 -28.65 Q-21.6 -24.2 -21.1 -18.8 -18.65 -11.75 -13.55 -8.4 M-6.9 -29.05 Q-3.2 -29.95 -1.4 -28.25 1.2 -25.3 -0.2 -21.8 -2.45 -16.25 -8.15 -16.45 -12.3 -17.55 -12.7 -21.85 -13.3 -28.05 -6.9 -29.05 M11.8 -24.5 L9.9 -32.15 M15.45 -16.55 L15.8 -19.05 Q16.35 -23.45 15.65 -27.8 14.85 -32.55 12.05 -36.6 8.95 -41.05 3.9 -43.2 M15.45 -16.55 L14.35 -13.2 Q12.6 -8.5 8.45 -5.55 10.65 -4.9 12.4 -3.5 16.65 -0.35 16.2 5.1 15.75 10.05 12.2 13.35 L16.75 14.15 Q18.65 14.75 20.15 16.0 24.2 19.2 24.7 24.5 25.2 29.5 23.7 34.25 22.1 39.15 17.65 41.9 13.35 44.65 8.25 44.75 2.85 44.95 -1.5 41.7 -5.8 38.5 -5.8 33.5 -6.1 22.8 -0.2 19.05 L0.3 18.75 Q-1.5 17.8 -3.25 16.9 -7.75 14.0 -6.9 8.65 -6.15 3.75 -3.35 -0.6 L-5.2 -0.85 Q-10.0 -1.6 -13.7 -3.75 L-16.45 -5.65 Q-21.95 -10.0 -24.7 -18.1 M-10.25 -44.25 L-4.25 -44.75 Q0.25 -44.75 3.9 -43.2 M11.8 -24.5 Q12.4 -20.85 11.9 -17.8 L11.8 -17.25 Q10.25 -10.1 2.45 -5.95 -6.85 -4.55 -12.8 -7.95 L-13.55 -8.4 M10.85 4.7 Q9.5 1.2 6.05 -0.3 L4.2 -1.1 2.65 -1.4 Q-0.45 0.35 -2.15 3.55 -5.0 9.0 -0.9 13.5 L-0.55 13.8 M2.75 3.5 L5.05 4.05 5.95 5.35 6.15 5.85 6.15 6.15 Q5.95 9.5 2.85 10.35 L1.6 9.85 1.4 9.7 0.1 7.9 Q0.1 6.1 0.9 4.8 1.65 3.5 2.75 3.5 M10.85 4.7 Q11.5 8.5 9.0 11.7 5.05 16.75 -0.55 13.8 M-0.95 32.4 L-0.2 34.35 M5.0 32.15 Q3.4 29.7 4.6 27.15 6.05 24.05 9.2 23.55 M12.05 17.6 L10.15 17.6 Q4.5 18.3 1.05 22.85 -2.25 27.15 -0.95 32.4 M16.85 19.15 Q14.85 17.75 12.05 17.6 M18.25 34.2 Q19.9 31.5 20.3 28.4 20.95 23.05 16.85 19.15 M11.85 32.35 Q13.85 29.5 12.15 26.4 L11.65 25.5 Q10.55 23.75 9.2 23.55 M11.85 32.35 Q11.15 33.15 10.35 33.45 7.15 35.05 5.0 32.15 M10.5 39.85 L14.25 38.1 18.25 34.2 M10.5 39.85 Q3.4 42.25 -0.2 34.35" fill="none" stroke="#000000" stroke-linecap="round" stroke-linejoin="round" stroke-width="2.0"/>
      <path d="M-24.7 -18.1 Q-25.0 -24.55 -23.6 -29.5 L-23.35 -30.5 Q-21.85 -35.35 -18.45 -38.75 -14.95 -42.35 -10.25 -44.25" fill="none" stroke="#000000" stroke-linecap="round" stroke-linejoin="round" stroke-width="2.0"/>
    </g>
  </defs>
</svg>
