<?xml version="1.0" encoding="UTF-8" standalone="no"?>
<svg xmlns:xlink="http://www.w3.org/1999/xlink" height="94.5px" width="72.2px" xmlns="http://www.w3.org/2000/svg">
  <g transform="matrix(1.0, 0.0, 0.0, 1.0, 36.1, 47.25)">
    <use height="94.5" transform="matrix(1.0, 0.0, 0.0, 1.0, -36.1, -47.25)" width="72.2" xlink:href="#shape0"/>
  </g>
  <defs>
    <g id="shape0" transform="matrix(1.0, 0.0, 0.0, 1.0, 36.1, 47.25)">
      <path d="M3.45 -46.15 L3.4 -46.25 11.35 -43.0 13.5 -38.15 6.8 -38.8 5.35 -42.05 3.45 -46.15" fill="#6c6c74" fill-rule="evenodd" stroke="none"/>
      <path d="M3.45 -46.15 L5.35 -42.05 Q0.6 -41.25 -3.85 -39.6 -7.2 -38.4 -10.65 -37.85 -16.05 -36.75 -21.05 -34.65 L-26.55 -32.25 Q-30.85 -30.25 -34.35 -27.05 L-35.1 -30.3 Q-17.7 -41.05 3.2 -46.2 L3.45 -46.15" fill="#bcb8b9" fill-rule="evenodd" stroke="none"/>
      <path d="M-30.65 -27.0 Q-16.25 -37.3 1.3 -40.35 L1.8 -39.35 2.5 -37.85 -0.1 -38.15 Q-7.45 -37.65 -26.8 -26.5 L-30.65 -27.0 -26.8 -26.5 -24.7 -17.6 -27.45 -16.45 -30.65 -27.0" fill="#252733" fill-rule="evenodd" stroke="none"/>
      <path d="M5.35 -42.05 L6.8 -38.8 16.75 -15.25 23.55 3.05 Q26.9 12.7 29.95 22.5 L25.95 25.4 25.35 23.35 Q19.35 2.35 11.4 -17.45 7.2 -27.8 2.5 -37.85 L1.8 -39.35 1.3 -40.35 Q-16.25 -37.3 -30.65 -27.0 L-27.45 -16.45 -22.35 -0.25 Q-10.3 37.05 -5.1 41.3 L-9.15 43.1 Q-25.8 9.95 -34.35 -27.05 -30.85 -30.25 -26.55 -32.25 L-21.05 -34.65 Q-16.05 -36.75 -10.65 -37.85 -7.2 -38.4 -3.85 -39.6 0.6 -41.25 5.35 -42.05" fill="#807a7a" fill-rule="evenodd" stroke="none"/>
      <path d="M6.8 -38.8 L13.5 -38.15 21.65 -18.2 16.75 -15.25 6.8 -38.8" fill="#565865" fill-rule="evenodd" stroke="none"/>
      <path d="M-26.8 -26.5 Q-7.45 -37.65 -0.1 -38.15 L2.5 -37.85 Q7.2 -27.8 11.4 -17.45 12.15 -12.15 11.25 -6.9 10.25 -1.3 5.15 1.7 L0.8 4.2 Q-2.45 6.15 -6.25 5.65 L-11.6 4.5 Q-16.3 3.6 -19.6 0.25 L-24.7 -17.6 -26.8 -26.5 M-9.85 24.45 Q-9.75 20.75 -8.35 17.3 -6.45 12.75 -2.65 9.5 0.7 6.6 5.05 5.85 10.9 5.3 14.9 9.5 18.9 13.6 18.7 19.25 18.6 22.55 16.65 25.2 13.65 29.3 9.15 31.35 4.15 33.8 -1.3 32.35 -5.45 31.25 -8.4 27.8 L-9.75 25.0 -9.85 24.45" fill="#676266" fill-rule="evenodd" stroke="none"/>
      <path d="M11.4 -17.45 Q19.35 2.35 25.35 23.35 1.35 38.65 -2.85 37.75 -5.75 33.05 -8.4 27.8 -5.45 31.25 -1.3 32.35 4.15 33.8 9.15 31.35 13.65 29.3 16.65 25.2 18.6 22.55 18.7 19.25 18.9 13.6 14.9 9.5 10.9 5.3 5.05 5.85 0.7 6.6 -2.65 9.5 -6.45 12.75 -8.35 17.3 -9.75 20.75 -9.85 24.45 L-10.0 24.55 Q-15.35 13.45 -19.6 0.25 -16.3 3.6 -11.6 4.5 L-6.25 5.65 Q-2.45 6.15 0.8 4.2 L5.15 1.7 Q10.25 -1.3 11.25 -6.9 12.15 -12.15 11.4 -17.45" fill="#838695" fill-rule="evenodd" stroke="none"/>
      <path d="M21.65 -18.2 L25.8 -6.9 23.55 3.05 16.75 -15.25 21.65 -18.2" fill="#292d38" fill-rule="evenodd" stroke="none"/>
      <path d="M25.8 -6.9 L35.1 22.1 31.8 28.6 29.95 22.5 Q26.9 12.7 23.55 3.05 L25.8 -6.9" fill="#010101" fill-rule="evenodd" stroke="none"/>
      <path d="M31.8 28.6 Q29.85 32.8 -0.45 45.15 -4.85 47.35 -8.15 45.15 L-9.15 43.1 -5.1 41.3 -4.6 41.6 -1.15 40.4 Q19.5 32.85 26.15 26.2 L25.95 25.4 29.95 22.5 31.8 28.6" fill="#625e5d" fill-rule="evenodd" stroke="none"/>
      <path d="M25.35 23.35 L25.95 25.4 26.15 26.2 Q19.5 32.85 -1.15 40.4 L-2.85 37.75 Q1.35 38.65 25.35 23.35" fill="#000000" fill-rule="evenodd" stroke="none"/>
      <path d="M-9.75 25.0 L-8.4 27.8 Q-5.75 33.05 -2.85 37.75 L-1.15 40.4 -4.6 41.6 -5.1 41.3 Q-10.3 37.05 -22.35 -0.25 L-27.45 -16.45 -24.7 -17.6 -19.6 0.25 Q-15.35 13.45 -10.0 24.55 L-9.75 25.0" fill="#646672" fill-rule="evenodd" stroke="none"/>
      <path d="M13.5 -38.15 L11.35 -43.0 3.4 -46.25 3.45 -46.15 5.35 -42.05 6.8 -38.8 M13.5 -38.15 L21.65 -18.2 25.8 -6.9 35.1 22.1 31.8 28.6 Q29.85 32.8 -0.45 45.15 -4.85 47.35 -8.15 45.15 L-9.15 43.1 Q-25.8 9.95 -34.35 -27.05 L-35.1 -30.3 Q-17.7 -41.05 3.2 -46.2 L3.4 -46.25 M2.5 -37.85 L1.8 -39.35 1.3 -40.35 Q-16.25 -37.3 -30.65 -27.0 L-26.8 -26.5 Q-7.45 -37.65 -0.1 -38.15 L2.5 -37.85 Q7.2 -27.8 11.4 -17.45 19.35 2.35 25.35 23.35 L25.95 25.4 26.15 26.2 Q19.5 32.85 -1.15 40.4 L-4.6 41.6 -5.1 41.3 M29.95 22.5 Q26.9 12.7 23.55 3.05 L16.75 -15.25 6.8 -38.8 M-9.75 25.0 L-8.4 27.8 Q-5.75 33.05 -2.85 37.75 1.35 38.65 25.35 23.35 M29.95 22.5 L31.8 28.6 M-27.45 -16.45 L-22.35 -0.25 Q-10.3 37.05 -5.1 41.3 M-30.65 -27.0 L-27.45 -16.45 M-26.8 -26.5 L-24.7 -17.6 -19.6 0.25 Q-15.35 13.45 -10.0 24.55 L-9.75 25.0 M-2.85 37.75 L-1.15 40.4" fill="none" stroke="#000000" stroke-linecap="round" stroke-linejoin="round" stroke-width="2.0"/>
    </g>
  </defs>
</svg>
