<?xml version="1.0" encoding="UTF-8" standalone="no"?>
<svg xmlns:xlink="http://www.w3.org/1999/xlink" height="91.5px" width="51.55px" xmlns="http://www.w3.org/2000/svg">
  <g transform="matrix(1.0, 0.0, 0.0, 1.0, 25.75, 45.75)">
    <use height="91.5" transform="matrix(1.0, 0.0, 0.0, 1.0, -25.75, -45.75)" width="51.55" xlink:href="#shape0"/>
  </g>
  <defs>
    <g id="shape0" transform="matrix(1.0, 0.0, 0.0, 1.0, 25.75, 45.75)">
      <path d="M-6.45 -41.15 L-8.05 -35.25 -8.15 -34.6 Q-8.35 -31.6 -6.9 -29.05 L-6.4 -27.25 Q-5.9 -25.2 -7.65 -24.4 L-6.9 -21.95 -6.85 -20.8 Q-6.75 -18.45 -8.15 -16.45 L-9.8 -13.2 -10.6 -11.85 -12.8 -7.95 -13.55 -8.4 Q-18.65 -11.75 -21.1 -18.8 -21.6 -24.2 -20.1 -28.65 L-20.05 -28.75 Q-17.55 -36.3 -9.25 -41.1 L-6.45 -41.15 M-6.9 -29.05 Q-13.3 -28.05 -12.7 -21.85 -12.3 -17.55 -8.15 -16.45 -12.3 -17.55 -12.7 -21.85 -13.3 -28.05 -6.9 -29.05 M-0.2 34.35 L-0.95 32.4 Q-2.25 27.15 1.05 22.85 4.5 18.3 10.15 17.6 L12.05 17.6 10.7 20.65 9.2 23.55 Q6.05 24.05 4.6 27.15 3.4 29.7 5.0 32.15 L4.9 32.2 3.15 32.85 0.8 33.85 -0.2 34.35" fill="#1b1b1b" fill-rule="evenodd" stroke="none"/>
      <path d="M2.15 -39.75 Q-1.4 -41.1 -6.45 -41.15 L-9.25 -41.1 Q-17.55 -36.3 -20.05 -28.75 -20.2 -29.6 -23.35 -30.5 -21.85 -35.35 -18.45 -38.75 -14.95 -42.35 -10.25 -44.25 L-4.25 -44.75 Q0.25 -44.75 3.9 -43.2 1.9 -42.25 2.15 -39.75" fill="#fdfdfd" fill-rule="evenodd" stroke="none"/>
      <path d="M9.9 -32.15 Q8.15 -36.75 3.8 -39.0 2.95 -39.4 2.15 -39.75 1.9 -42.25 3.9 -43.2 8.95 -41.05 12.05 -36.6 14.85 -32.55 15.65 -27.8 16.35 -23.45 15.8 -19.05 L15.45 -16.55 14.5 -16.45 Q13.5 -16.55 13.1 -17.4 L11.9 -17.8 Q12.4 -20.85 11.8 -24.5 L9.9 -32.15 M-5.8 33.5 Q-6.1 22.8 -0.2 19.05 L0.35 18.85 8.5 14.55 10.4 15.45 10.15 17.6 Q4.5 18.3 1.05 22.85 -2.25 27.15 -0.95 32.4 L-5.8 33.5 M-3.25 16.9 Q-7.75 14.0 -6.9 8.65 -6.15 3.75 -3.35 -0.6 L-5.2 -0.85 Q-1.6 -4.4 3.45 -4.95 5.6 -5.3 6.6 -3.45 L6.5 -2.45 4.2 -1.1 2.65 -1.4 Q-0.45 0.35 -2.15 3.55 -5.0 9.0 -0.9 13.5 L-0.55 13.8 -2.9 15.85 -3.25 16.9 M-16.45 -5.65 Q-21.95 -10.0 -24.7 -18.1 -25.0 -24.55 -23.6 -29.5 L-23.35 -30.5 Q-20.2 -29.6 -20.05 -28.75 L-20.1 -28.65 Q-21.6 -24.2 -21.1 -18.8 -18.65 -11.75 -13.55 -8.4 L-16.45 -5.65" fill="#d7d8dd" fill-rule="evenodd" stroke="none"/>
      <path d="M-8.05 -35.25 Q-2.6 -34.7 2.05 -31.95 6.1 -29.55 9.9 -32.15 L11.8 -24.5 8.4 -20.9 Q4.9 -16.8 0.2 -14.4 -4.65 -11.95 -9.8 -13.2 L-8.15 -16.45 Q-2.45 -16.25 -0.2 -21.8 1.2 -25.3 -1.4 -28.25 -3.2 -29.95 -6.9 -29.05 -8.35 -31.6 -8.15 -34.6 L-8.05 -35.25 M4.2 -1.1 L6.05 -0.3 Q9.5 1.2 10.85 4.7 L10.5 4.95 7.55 7.05 7.45 6.85 Q7.1 6.0 6.15 5.85 L5.95 5.35 5.05 4.05 2.75 3.5 Q3.95 1.15 2.85 -1.05 L2.65 -1.4 4.2 -1.1 M4.9 32.2 L5.0 32.15 Q7.15 35.05 10.35 33.45 11.15 33.15 11.85 32.35 13.85 29.5 12.15 26.4 L11.65 25.5 Q10.55 23.75 9.2 23.55 L10.7 20.65 16.85 19.15 Q20.95 23.05 20.3 28.4 19.9 31.5 18.25 34.2 L15.1 34.2 Q11.7 37.6 7.8 35.3 5.85 34.2 4.9 32.2" fill="#484743" fill-rule="evenodd" stroke="none"/>
      <path d="M-6.9 -29.05 Q-3.2 -29.95 -1.4 -28.25 L-4.0 -24.3 -4.4 -24.65 -6.9 -21.95 -7.65 -24.4 Q-5.9 -25.2 -6.4 -27.25 L-6.9 -29.05 M2.75 3.5 L5.05 4.05 5.0 4.85 4.15 5.5 Q1.35 4.95 0.25 7.3 0.1 7.55 0.1 7.9 0.1 6.1 0.9 4.8 1.65 3.5 2.75 3.5 M-4.7 -27.9 L-5.0 -27.85 Q-5.5 -27.55 -5.5 -27.0 -5.4 -25.95 -4.5 -25.65 -3.8 -25.45 -3.55 -26.05 -2.85 -27.85 -4.7 -27.9 M11.65 25.5 L10.85 26.85 Q9.85 29.3 7.3 29.55 L6.75 28.35 9.2 23.55 Q10.55 23.75 11.65 25.5" fill="#f4f4f4" fill-rule="evenodd" stroke="none"/>
      <path d="M2.65 -1.4 L2.85 -1.05 Q3.95 1.15 2.75 3.5 1.65 3.5 0.9 4.8 0.1 6.1 0.1 7.9 L1.4 9.7 1.6 9.85 2.85 10.35 Q5.95 9.5 6.15 6.15 L6.15 5.85 Q7.1 6.0 7.45 6.85 L7.55 7.05 Q7.55 9.05 6.0 10.5 4.45 11.9 2.3 11.9 0.95 11.9 0.05 12.4 -0.9 12.85 -0.9 13.5 -5.0 9.0 -2.15 3.55 -0.45 0.35 2.65 -1.4 M-4.7 -27.9 Q-2.85 -27.85 -3.55 -26.05 -3.8 -25.45 -4.5 -25.65 -5.4 -25.95 -5.5 -27.0 -5.5 -27.55 -5.0 -27.85 L-4.7 -27.9 M5.0 32.15 Q3.4 29.7 4.6 27.15 6.05 24.05 9.2 23.55 L6.75 28.35 7.3 29.55 7.2 30.6 5.0 32.15" fill="#000000" fill-rule="evenodd" stroke="none"/>
      <path d="M9.9 -32.15 Q6.1 -29.55 2.05 -31.95 -2.6 -34.7 -8.05 -35.25 L-6.45 -41.15 Q-1.4 -41.1 2.15 -39.75 2.95 -39.4 3.8 -39.0 8.15 -36.75 9.9 -32.15" fill="#7c7774" fill-rule="evenodd" stroke="none"/>
      <path d="M-1.4 -28.25 Q1.2 -25.3 -0.2 -21.8 -2.45 -16.25 -8.15 -16.45 -6.75 -18.45 -6.85 -20.8 L-6.9 -21.95 -4.4 -24.65 -4.0 -24.3 -1.4 -28.25 M5.05 4.05 L5.95 5.35 6.05 6.25 2.0 8.9 1.6 9.75 1.4 9.7 0.1 7.9 Q0.1 7.55 0.25 7.3 1.35 4.95 4.15 5.5 L5.0 4.85 5.05 4.05 M11.65 25.5 L12.15 26.4 Q13.85 29.5 11.85 32.35 9.1 33.1 7.4 30.85 L7.2 30.6 7.3 29.55 Q9.85 29.3 10.85 26.85 L11.65 25.5" fill="#525252" fill-rule="evenodd" stroke="none"/>
      <path d="M11.9 -17.8 L13.1 -17.4 Q13.5 -16.55 14.5 -16.45 L15.45 -16.55 14.35 -13.2 Q12.6 -8.5 8.45 -5.55 10.65 -4.9 12.4 -3.5 16.65 -0.35 16.2 5.1 15.75 10.05 12.2 13.35 L16.75 14.15 Q18.65 14.75 20.15 16.0 24.2 19.2 24.7 24.5 25.2 29.5 23.7 34.25 22.1 39.15 17.65 41.9 13.35 44.65 8.25 44.75 2.85 44.95 -1.5 41.7 -5.8 38.5 -5.8 33.5 L-0.95 32.4 -0.2 34.35 Q3.4 42.25 10.5 39.85 L14.25 38.1 18.25 34.2 Q19.9 31.5 20.3 28.4 20.95 23.05 16.85 19.15 14.85 17.75 12.05 17.6 L10.15 17.6 10.4 15.45 8.5 14.55 0.35 18.85 0.3 18.75 Q-1.5 17.8 -3.25 16.9 L-2.9 15.85 -0.55 13.8 Q5.05 16.75 9.0 11.7 11.5 8.5 10.85 4.7 9.5 1.2 6.05 -0.3 L4.2 -1.1 6.5 -2.45 6.6 -3.45 Q5.6 -5.3 3.45 -4.95 -1.6 -4.4 -5.2 -0.85 -10.0 -1.6 -13.7 -3.75 L-16.45 -5.65 -13.55 -8.4 -12.8 -7.95 Q-6.85 -4.55 2.45 -5.95 10.25 -10.1 11.8 -17.25 L11.9 -17.8" fill="#aeb4bb" fill-rule="evenodd" stroke="none"/>
      <path d="M11.8 -17.25 Q10.25 -10.1 2.45 -5.95 -6.85 -4.55 -12.8 -7.95 L-10.6 -11.85 Q-5.6 -9.95 -0.45 -10.65 4.5 -11.45 8.55 -14.65 L11.8 -17.25 M10.5 4.95 L10.85 4.7 Q11.5 8.5 9.0 11.7 5.05 16.75 -0.55 13.8 L-0.9 13.5 Q-0.9 12.85 0.05 12.4 0.95 11.9 2.3 11.9 8.2 13.5 10.3 7.45 10.75 6.25 10.5 4.95 M-0.2 34.35 L0.8 33.85 Q3.2 37.5 7.3 38.8 L10.5 39.85 Q3.4 42.25 -0.2 34.35" fill="#f0f0f0" fill-rule="evenodd" stroke="none"/>
      <path d="M-9.8 -13.2 Q-4.65 -11.95 0.2 -14.4 4.9 -16.8 8.4 -20.9 L11.8 -24.5 Q12.4 -20.85 11.9 -17.8 L11.8 -17.25 8.55 -14.65 Q4.5 -11.45 -0.45 -10.65 -5.6 -9.95 -10.6 -11.85 L-9.8 -13.2 M0.8 33.85 L3.15 32.85 Q6.45 37.2 12.25 37.85 L14.25 38.1 10.5 39.85 7.3 38.8 Q3.2 37.5 0.8 33.85" fill="#a4a3a1" fill-rule="evenodd" stroke="none"/>
      <path d="M5.95 5.35 L6.15 5.85 6.15 6.15 Q5.95 9.5 2.85 10.35 L1.6 9.85 1.6 9.75 2.0 8.9 6.05 6.25 5.95 5.35 M7.55 7.05 L10.5 4.95 Q10.75 6.25 10.3 7.45 8.2 13.5 2.3 11.9 4.45 11.9 6.0 10.5 7.55 9.05 7.55 7.05 M3.15 32.85 L4.9 32.2 Q5.85 34.2 7.8 35.3 11.7 37.6 15.1 34.2 L18.25 34.2 14.25 38.1 12.25 37.85 Q6.45 37.2 3.15 32.85 M10.7 20.65 L12.05 17.6 Q14.85 17.75 16.85 19.15 L10.7 20.65 M7.2 30.6 L7.4 30.85 Q9.1 33.1 11.85 32.35 11.15 33.15 10.35 33.45 7.15 35.05 5.0 32.15 L7.2 30.6" fill="#918d8a" fill-rule="evenodd" stroke="none"/>
      <path d="M9.9 -32.15 Q8.15 -36.75 3.8 -39.0 2.95 -39.4 2.15 -39.75 -1.4 -41.1 -6.45 -41.15 L-9.25 -41.1 Q-17.55 -36.3 -20.05 -28.75 L-20.1 -28.65 Q-21.6 -24.2 -21.1 -18.8 -18.65 -11.75 -13.55 -8.4 M-6.9 -29.05 Q-3.2 -29.95 -1.4 -28.25 1.2 -25.3 -0.2 -21.8 -2.45 -16.25 -8.15 -16.45 -12.3 -17.55 -12.7 -21.85 -13.3 -28.05 -6.9 -29.05 M11.8 -24.5 L9.9 -32.15 M15.45 -16.55 L15.8 -19.05 Q16.35 -23.45 15.65 -27.8 14.85 -32.55 12.05 -36.6 8.95 -41.05 3.9 -43.2 M15.45 -16.55 L14.35 -13.2 Q12.6 -8.5 8.45 -5.55 10.65 -4.9 12.4 -3.5 16.65 -0.35 16.2 5.1 15.75 10.05 12.2 13.35 L16.75 14.15 Q18.65 14.75 20.15 16.0 24.2 19.2 24.7 24.5 25.2 29.5 23.7 34.25 22.1 39.15 17.65 41.9 13.35 44.65 8.25 44.75 2.85 44.95 -1.5 41.7 -5.8 38.5 -5.8 33.5 -6.1 22.8 -0.2 19.05 L0.3 18.75 Q-1.5 17.8 -3.25 16.9 -7.75 14.0 -6.9 8.65 -6.15 3.75 -3.35 -0.6 L-5.2 -0.85 Q-10.0 -1.6 -13.7 -3.75 L-16.45 -5.65 Q-21.95 -10.0 -24.7 -18.1 M-10.25 -44.25 L-4.25 -44.75 Q0.25 -44.75 3.9 -43.2 M11.8 -24.5 Q12.4 -20.85 11.9 -17.8 L11.8 -17.25 Q10.25 -10.1 2.45 -5.95 -6.85 -4.55 -12.8 -7.95 L-13.55 -8.4 M10.85 4.7 Q9.5 1.2 6.05 -0.3 L4.2 -1.1 2.65 -1.4 Q-0.45 0.35 -2.15 3.55 -5.0 9.0 -0.9 13.5 L-0.55 13.8 M2.75 3.5 L5.05 4.05 5.95 5.35 6.15 5.85 6.15 6.15 Q5.95 9.5 2.85 10.35 L1.6 9.85 1.4 9.7 0.1 7.9 Q0.1 6.1 0.9 4.8 1.65 3.5 2.75 3.5 M10.85 4.7 Q11.5 8.5 9.0 11.7 5.05 16.75 -0.55 13.8 M-0.95 32.4 L-0.2 34.35 M5.0 32.15 Q3.4 29.7 4.6 27.15 6.05 24.05 9.2 23.55 M12.05 17.6 L10.15 17.6 Q4.5 18.3 1.05 22.85 -2.25 27.15 -0.95 32.4 M16.85 19.15 Q14.85 17.75 12.05 17.6 M18.25 34.2 Q19.9 31.5 20.3 28.4 20.95 23.05 16.85 19.15 M11.85 32.35 Q13.85 29.5 12.15 26.4 L11.65 25.5 Q10.55 23.75 9.2 23.55 M11.85 32.35 Q11.15 33.15 10.35 33.45 7.15 35.05 5.0 32.15 M10.5 39.85 L14.25 38.1 18.25 34.2 M10.5 39.85 Q3.4 42.25 -0.2 34.35" fill="none" stroke="#000000" stroke-linecap="round" stroke-linejoin="round" stroke-width="2.0"/>
      <path d="M-24.7 -18.1 Q-25.0 -24.55 -23.6 -29.5 L-23.35 -30.5 Q-21.85 -35.35 -18.45 -38.75 -14.95 -42.35 -10.25 -44.25" fill="none" stroke="#000000" stroke-linecap="round" stroke-linejoin="round" stroke-width="2.0"/>
    </g>
  </defs>
</svg>
