<?xml version="1.0" encoding="UTF-8" standalone="no"?>
<svg xmlns:xlink="http://www.w3.org/1999/xlink" height="40.3px" width="19.35px" xmlns="http://www.w3.org/2000/svg">
  <g transform="matrix(1.0, 0.0, 0.0, 1.0, 9.65, 20.15)">
    <use height="38.0" transform="matrix(1.0, 0.0, 0.0, 1.0, -9.1, -19.0)" width="18.25" xlink:href="#sprite0"/>
  </g>
  <defs>
    <g id="sprite0" transform="matrix(1.0, 0.0, 0.0, 1.0, 9.15, 19.0)">
      <use height="38.0" transform="matrix(1.0, 0.0, 0.0, 1.0, -9.15, -19.0)" width="18.25" xlink:href="#shape0"/>
    </g>
    <g id="shape0" transform="matrix(1.0, 0.0, 0.0, 1.0, 9.15, 19.0)">
      <path d="M2.4 -17.4 L0.25 -18.25 Q-5.95 -18.45 -7.2 -10.7 L-7.3 -9.8 Q-7.9 -6.15 -6.0 -2.35 L-3.65 1.0 Q-4.7 1.0 -5.55 1.95 -7.35 3.3 -8.05 6.1 -8.6 8.15 -8.3 10.15 -8.1 11.85 -7.35 13.5 -5.9 16.75 -3.05 17.9 L-1.65 18.25 Q0.65 18.25 2.3 16.35 3.95 14.4 3.95 11.65 4.3 8.2 2.95 5.2 L2.55 4.55 1.65 3.4 Q3.1 3.25 4.6 2.4 L5.8 1.5 Q7.6 -0.2 8.15 -3.0 L8.35 -4.8 Q8.45 -8.45 7.15 -12.05 5.65 -15.55 2.4 -17.4 Z" fill="none" stroke="#000000" stroke-linecap="round" stroke-linejoin="round" stroke-width="1.5"/>
      <path d="M5.55 -6.2 Q5.45 -8.35 4.7 -10.35 3.8 -12.85 1.65 -13.9 L0.9 -14.25 0.25 -14.55 Q-2.15 -14.65 -3.45 -13.0 -4.4 -11.85 -4.75 -9.8 L-7.2 -10.7 Q-5.95 -18.45 0.25 -18.25 L2.4 -17.4 Q5.65 -15.55 7.15 -12.05 8.45 -8.45 8.35 -4.8 L5.55 -5.85 5.55 -6.2" fill="#d2d3d8" fill-rule="evenodd" stroke="none"/>
      <path d="M0.9 -14.25 L1.65 -13.9 Q3.8 -12.85 4.7 -10.35 5.45 -8.35 5.55 -6.2 L3.45 -6.8 Q3.45 -8.6 2.85 -9.85 2.2 -11.1 1.3 -11.1 L1.4 -12.1 Q1.4 -13.5 0.9 -14.25 M-0.35 -5.55 L0.4 -6.25 -0.1 -8.1 1.1 -8.25 1.5 -6.85 3.0 -5.65 2.95 -5.55 Q2.3 -4.6 1.35 -4.6 L-0.35 -5.55 M-2.1 10.1 L-1.35 9.2 -0.55 9.7 -0.9 10.45 -1.1 10.6 Q-1.85 10.8 -2.1 10.1" fill="#000000" fill-rule="evenodd" stroke="none"/>
      <path d="M5.55 -6.2 L5.55 -5.85 5.5 -4.5 Q5.15 -2.6 3.85 -1.4 L3.0 -0.8 Q1.3 -1.5 1.3 -3.95 L1.35 -4.6 Q2.3 -4.6 2.95 -5.55 L3.0 -5.65 3.45 -6.8 5.55 -6.2 M-3.45 -13.0 Q-2.15 -14.65 0.25 -14.55 L0.9 -14.25 Q1.4 -13.5 1.4 -12.1 L1.3 -11.1 Q0.35 -11.1 -0.3 -10.55 -1.0 -10.05 -1.0 -9.3 L-2.4 -10.4 Q-3.45 -11.6 -3.45 -13.0 M-4.45 4.95 Q-2.75 3.5 -0.85 4.8 0.9 6.1 1.25 8.3 L1.7 10.65 Q1.7 12.55 0.85 13.9 -0.05 15.2 -1.3 15.2 -0.7 13.55 -0.7 12.25 L-0.9 10.45 -0.55 9.7 Q-0.55 9.05 -0.9 8.6 -1.3 8.1 -1.8 8.1 -2.75 6.45 -4.45 4.95" fill="#7c8187" fill-rule="evenodd" stroke="none"/>
      <path d="M1.3 -11.1 Q2.2 -11.1 2.85 -9.85 3.45 -8.6 3.45 -6.8 L3.0 -5.65 1.5 -6.85 1.1 -8.25 -0.1 -8.1 0.4 -6.25 -0.35 -5.55 Q-1.25 -6.65 -1.15 -8.45 L-1.0 -9.3 Q-1.0 -10.05 -0.3 -10.55 0.35 -11.1 1.3 -11.1" fill="#d9dade" fill-rule="evenodd" stroke="none"/>
      <path d="M-4.75 -9.8 Q-4.4 -11.85 -3.45 -13.0 -3.45 -11.6 -2.4 -10.4 L-1.0 -9.3 -1.15 -8.45 Q-1.25 -6.65 -0.35 -5.55 L1.35 -4.6 1.3 -3.95 Q1.3 -1.5 3.0 -0.8 1.25 0.15 -0.8 -0.85 -2.75 -1.75 -3.8 -3.65 L-3.9 -3.8 Q-5.25 -6.45 -4.9 -8.95 L-4.75 -9.8" fill="#ffffff" fill-rule="evenodd" stroke="none"/>
      <path d="M3.0 -0.8 L3.85 -1.4 5.8 1.5 4.6 2.4 Q3.1 3.25 1.65 3.4 0.15 1.9 -1.2 1.5 L-2.9 1.05 -3.65 1.0 -6.0 -2.35 -3.9 -3.8 -3.8 -3.65 Q-2.75 -1.75 -0.8 -0.85 1.25 0.15 3.0 -0.8" fill="#c7c8cc" fill-rule="evenodd" stroke="none"/>
      <path d="M5.55 -5.85 L8.35 -4.8 8.15 -3.0 Q7.6 -0.2 5.8 1.5 L3.85 -1.4 Q5.15 -2.6 5.5 -4.5 L5.55 -5.85 M-7.2 -10.7 L-4.75 -9.8 -4.9 -8.95 Q-5.25 -6.45 -3.9 -3.8 L-6.0 -2.35 Q-7.9 -6.15 -7.3 -9.8 L-7.2 -10.7" fill="#989ca5" fill-rule="evenodd" stroke="none"/>
      <path d="M-3.65 1.0 L-2.9 1.05 -1.2 1.5 Q0.15 1.9 1.65 3.4 L2.55 4.55 2.95 5.2 Q4.3 8.2 3.95 11.65 L1.7 10.65 1.25 8.3 Q0.9 6.1 -0.85 4.8 -2.75 3.5 -4.45 4.95 -5.3 5.75 -5.65 7.2 L-8.05 6.1 Q-7.35 3.3 -5.55 1.95 -4.7 1.0 -3.65 1.0" fill="#d2d3d7" fill-rule="evenodd" stroke="none"/>
      <path d="M1.7 10.65 L3.95 11.65 Q3.95 14.4 2.3 16.35 0.65 18.25 -1.65 18.25 L-1.85 15.2 -1.3 15.2 Q-0.05 15.2 0.85 13.9 1.7 12.55 1.7 10.65 M-8.3 10.15 Q-8.6 8.15 -8.05 6.1 L-5.65 7.2 -5.85 10.1 -8.3 10.15" fill="#818890" fill-rule="evenodd" stroke="none"/>
      <path d="M-1.3 15.2 L-1.85 15.2 Q-3.5 15.2 -4.65 13.7 -5.85 12.2 -5.85 10.1 L-5.65 7.2 Q-5.3 5.75 -4.45 4.95 -2.75 6.45 -1.8 8.1 L-2.2 8.45 -2.1 10.1 Q-1.85 10.8 -1.1 10.6 L-0.9 10.45 -0.7 12.25 Q-0.7 13.55 -1.3 15.2" fill="#fbfbfd" fill-rule="evenodd" stroke="none"/>
      <path d="M-1.65 18.25 L-3.05 17.9 Q-5.9 16.75 -7.35 13.5 -8.1 11.85 -8.3 10.15 L-5.85 10.1 Q-5.85 12.2 -4.65 13.7 -3.5 15.2 -1.85 15.2 L-1.65 18.25" fill="#a4a7ac" fill-rule="evenodd" stroke="none"/>
      <path d="M-2.1 10.1 L-2.2 8.45 -1.8 8.1 Q-1.3 8.1 -0.9 8.6 -0.55 9.05 -0.55 9.7 L-1.35 9.2 -2.1 10.1" fill="#f4f4f4" fill-rule="evenodd" stroke="none"/>
      <path d="M0.9 -14.25 L1.65 -13.9 Q3.8 -12.85 4.7 -10.35 5.45 -8.35 5.55 -6.2 L5.55 -5.85 M8.35 -4.8 Q8.45 -8.45 7.15 -12.05 5.65 -15.55 2.4 -17.4 L0.25 -18.25 Q-5.95 -18.45 -7.2 -10.7 M-4.75 -9.8 Q-4.4 -11.85 -3.45 -13.0 -2.15 -14.65 0.25 -14.55 L0.9 -14.25 M1.3 -11.1 Q2.2 -11.1 2.85 -9.85 3.45 -8.6 3.45 -6.8 M-0.35 -5.55 L1.35 -4.6 Q2.3 -4.6 2.95 -5.55 L3.0 -5.65 3.45 -6.8 M3.85 -1.4 L3.0 -0.8 Q1.25 0.15 -0.8 -0.85 -2.75 -1.75 -3.8 -3.65 L-3.9 -3.8 Q-5.25 -6.45 -4.9 -8.95 L-4.75 -9.8 M-6.0 -2.35 L-3.65 1.0 -2.9 1.05 M-1.2 1.5 Q0.15 1.9 1.65 3.4 3.1 3.25 4.6 2.4 L5.8 1.5 M3.85 -1.4 Q5.15 -2.6 5.5 -4.5 L5.55 -5.85 M8.35 -4.8 L8.15 -3.0 Q7.6 -0.2 5.8 1.5 M3.95 11.65 Q4.3 8.2 2.95 5.2 L2.55 4.55 1.65 3.4 M3.95 11.65 Q3.95 14.4 2.3 16.35 0.65 18.25 -1.65 18.25 L-3.05 17.9 Q-5.9 16.75 -7.35 13.5 -8.1 11.85 -8.3 10.15 -8.6 8.15 -8.05 6.1 -7.35 3.3 -5.55 1.95 -4.7 1.0 -3.65 1.0 M-4.45 4.95 Q-2.75 3.5 -0.85 4.8 0.9 6.1 1.25 8.3 L1.7 10.65 Q1.7 12.55 0.85 13.9 -0.05 15.2 -1.3 15.2 L-1.85 15.2 M-0.35 -5.55 Q-1.25 -6.65 -1.15 -8.45 L-1.0 -9.3 Q-1.0 -10.05 -0.3 -10.55 0.35 -11.1 1.3 -11.1 M-6.0 -2.35 Q-7.9 -6.15 -7.3 -9.8 L-7.2 -10.7 M-5.85 10.1 L-5.65 7.2 M-5.85 10.1 Q-5.85 12.2 -4.65 13.7 -3.5 15.2 -1.85 15.2 M-1.8 8.1 L-2.2 8.45 -2.1 10.1 M-0.55 9.7 Q-0.55 9.05 -0.9 8.6 -1.3 8.1 -1.8 8.1 M-4.45 4.95 Q-5.3 5.75 -5.65 7.2 M-0.9 10.45 L-1.1 10.6 Q-1.85 10.8 -2.1 10.1 M-0.9 10.45 L-0.55 9.7" fill="none" stroke="#000000" stroke-linecap="round" stroke-linejoin="round" stroke-width="1.0"/>
      <path d="M-2.9 1.05 L-1.2 1.5" fill="none" stroke="#000000" stroke-linecap="round" stroke-linejoin="round" stroke-width="1.0"/>
    </g>
  </defs>
</svg>
