<?xml version="1.0" encoding="UTF-8" standalone="no"?>
<svg xmlns:xlink="http://www.w3.org/1999/xlink" height="94.5px" width="72.2px" xmlns="http://www.w3.org/2000/svg">
  <g transform="matrix(1.0, 0.0, 0.0, 1.0, 36.1, 47.25)">
    <use height="94.5" transform="matrix(1.0, 0.0, 0.0, 1.0, -36.1, -47.25)" width="72.2" xlink:href="#sprite0"/>
    <use height="26.9" transform="matrix(1.0, 0.0, 0.0, 1.0, -8.95, 4.05)" width="25.85" xlink:href="#sprite1"/>
    <use height="37.35" transform="matrix(1.0, 0.0, 0.0, 1.0, -22.6, -33.55)" width="32.55" xlink:href="#sprite2"/>
  </g>
  <defs>
    <g id="sprite0" transform="matrix(1.0, 0.0, 0.0, 1.0, 36.1, 47.25)">
      <use height="94.5" transform="matrix(1.0, 0.0, 0.0, 1.0, -36.1, -47.25)" width="72.2" xlink:href="#shape0"/>
    </g>
    <g id="shape0" transform="matrix(1.0, 0.0, 0.0, 1.0, 36.1, 47.25)">
      <path d="M3.45 -46.15 L3.4 -46.25 11.35 -43.0 13.5 -38.15 6.8 -38.8 5.35 -42.05 3.45 -46.15" fill="#6c6c74" fill-rule="evenodd" stroke="none"/>
      <path d="M3.45 -46.15 L5.35 -42.05 Q0.6 -41.25 -3.85 -39.6 -7.2 -38.4 -10.65 -37.85 -16.05 -36.75 -21.05 -34.65 L-26.55 -32.25 Q-30.85 -30.25 -34.35 -27.05 L-35.1 -30.3 Q-17.7 -41.05 3.2 -46.2 L3.45 -46.15" fill="#bcb8b9" fill-rule="evenodd" stroke="none"/>
      <path d="M-30.65 -27.0 Q-16.25 -37.3 1.3 -40.35 L1.8 -39.35 2.5 -37.85 -0.1 -38.15 Q-7.45 -37.65 -26.8 -26.5 L-30.65 -27.0 -26.8 -26.5 -24.7 -17.6 -27.45 -16.45 -30.65 -27.0" fill="#252733" fill-rule="evenodd" stroke="none"/>
      <path d="M5.35 -42.05 L6.8 -38.8 16.75 -15.25 23.55 3.05 Q26.9 12.7 29.95 22.5 L25.95 25.4 25.35 23.35 Q19.35 2.35 11.4 -17.45 7.2 -27.8 2.5 -37.85 L1.8 -39.35 1.3 -40.35 Q-16.25 -37.3 -30.65 -27.0 L-27.45 -16.45 -22.35 -0.25 Q-10.3 37.05 -5.1 41.3 L-9.15 43.1 Q-25.8 9.95 -34.35 -27.05 -30.85 -30.25 -26.55 -32.25 L-21.05 -34.65 Q-16.05 -36.75 -10.65 -37.85 -7.2 -38.4 -3.85 -39.6 0.6 -41.25 5.35 -42.05" fill="#807a7a" fill-rule="evenodd" stroke="none"/>
      <path d="M6.8 -38.8 L13.5 -38.15 21.65 -18.2 16.75 -15.25 6.8 -38.8" fill="#565865" fill-rule="evenodd" stroke="none"/>
      <path d="M-26.8 -26.5 Q-7.45 -37.65 -0.1 -38.15 L2.5 -37.85 Q7.2 -27.8 11.4 -17.45 12.15 -12.15 11.25 -6.9 10.25 -1.3 5.15 1.7 L0.8 4.2 Q-2.45 6.15 -6.25 5.65 L-11.6 4.5 Q-16.3 3.6 -19.6 0.25 L-24.7 -17.6 -26.8 -26.5 M-9.85 24.45 Q-9.75 20.75 -8.35 17.3 -6.45 12.75 -2.65 9.5 0.7 6.6 5.05 5.85 10.9 5.3 14.9 9.5 18.9 13.6 18.7 19.25 18.6 22.55 16.65 25.2 13.65 29.3 9.15 31.35 4.15 33.8 -1.3 32.35 -5.45 31.25 -8.4 27.8 L-9.75 25.0 -9.85 24.45" fill="#676266" fill-rule="evenodd" stroke="none"/>
      <path d="M11.4 -17.45 Q19.35 2.35 25.35 23.35 1.35 38.65 -2.85 37.75 -5.75 33.05 -8.4 27.8 -5.45 31.25 -1.3 32.35 4.15 33.8 9.15 31.35 13.65 29.3 16.65 25.2 18.6 22.55 18.7 19.25 18.9 13.6 14.9 9.5 10.9 5.3 5.05 5.85 0.7 6.6 -2.65 9.5 -6.45 12.75 -8.35 17.3 -9.75 20.75 -9.85 24.45 L-10.0 24.55 Q-15.35 13.45 -19.6 0.25 -16.3 3.6 -11.6 4.5 L-6.25 5.65 Q-2.45 6.15 0.8 4.2 L5.15 1.7 Q10.25 -1.3 11.25 -6.9 12.15 -12.15 11.4 -17.45" fill="#838695" fill-rule="evenodd" stroke="none"/>
      <path d="M21.65 -18.2 L25.8 -6.9 23.55 3.05 16.75 -15.25 21.65 -18.2" fill="#292d38" fill-rule="evenodd" stroke="none"/>
      <path d="M25.8 -6.9 L35.1 22.1 31.8 28.6 29.95 22.5 Q26.9 12.7 23.55 3.05 L25.8 -6.9" fill="#010101" fill-rule="evenodd" stroke="none"/>
      <path d="M31.8 28.6 Q29.85 32.8 -0.45 45.15 -4.85 47.35 -8.15 45.15 L-9.15 43.1 -5.1 41.3 -4.6 41.6 -1.15 40.4 Q19.5 32.85 26.15 26.2 L25.95 25.4 29.95 22.5 31.8 28.6" fill="#625e5d" fill-rule="evenodd" stroke="none"/>
      <path d="M25.35 23.35 L25.95 25.4 26.15 26.2 Q19.5 32.85 -1.15 40.4 L-2.85 37.75 Q1.35 38.65 25.35 23.35" fill="#000000" fill-rule="evenodd" stroke="none"/>
      <path d="M-9.75 25.0 L-8.4 27.8 Q-5.75 33.05 -2.85 37.75 L-1.15 40.4 -4.6 41.6 -5.1 41.3 Q-10.3 37.05 -22.35 -0.25 L-27.45 -16.45 -24.7 -17.6 -19.6 0.25 Q-15.35 13.45 -10.0 24.55 L-9.75 25.0" fill="#646672" fill-rule="evenodd" stroke="none"/>
      <path d="M13.5 -38.15 L11.35 -43.0 3.4 -46.25 3.45 -46.15 5.35 -42.05 6.8 -38.8 M13.5 -38.15 L21.65 -18.2 25.8 -6.9 35.1 22.1 31.8 28.6 Q29.85 32.8 -0.45 45.15 -4.85 47.35 -8.15 45.15 L-9.15 43.1 Q-25.8 9.95 -34.35 -27.05 L-35.1 -30.3 Q-17.7 -41.05 3.2 -46.2 L3.4 -46.25 M2.5 -37.85 L1.8 -39.35 1.3 -40.35 Q-16.25 -37.3 -30.65 -27.0 L-26.8 -26.5 Q-7.45 -37.65 -0.1 -38.15 L2.5 -37.85 Q7.2 -27.8 11.4 -17.45 19.35 2.35 25.35 23.35 L25.95 25.4 26.15 26.2 Q19.5 32.85 -1.15 40.4 L-4.6 41.6 -5.1 41.3 M29.95 22.5 Q26.9 12.7 23.55 3.05 L16.75 -15.25 6.8 -38.8 M-9.75 25.0 L-8.4 27.8 Q-5.75 33.05 -2.85 37.75 1.35 38.65 25.35 23.35 M29.95 22.5 L31.8 28.6 M-27.45 -16.45 L-22.35 -0.25 Q-10.3 37.05 -5.1 41.3 M-30.65 -27.0 L-27.45 -16.45 M-26.8 -26.5 L-24.7 -17.6 -19.6 0.25 Q-15.35 13.45 -10.0 24.55 L-9.75 25.0 M-2.85 37.75 L-1.15 40.4" fill="none" stroke="#000000" stroke-linecap="round" stroke-linejoin="round" stroke-width="2.0"/>
    </g>
    <g id="sprite1" transform="matrix(1.0, 0.0, 0.0, 1.0, 12.9, 13.45)">
      <use height="26.9" transform="matrix(1.0, 0.0, 0.0, 1.0, -12.9, -13.45)" width="25.85" xlink:href="#shape1"/>
    </g>
    <g id="shape1" transform="matrix(1.0, 0.0, 0.0, 1.0, 12.9, 13.45)">
      <path d="M8.55 -8.35 L8.45 -8.3 8.65 -8.25 11.05 -4.3 7.0 -4.3 6.4 -5.55 Q4.2 -9.45 1.2 -9.75 L1.65 -12.2 Q5.55 -11.55 8.55 -8.35 M-11.0 3.85 L-11.55 2.65 Q-12.4 0.2 -11.3 -2.7 L-7.95 -2.15 Q-8.55 0.3 -8.3 2.3 L-8.55 2.3 -9.45 2.35 -9.4 3.4 -11.0 3.85" fill="#b1b4bd" fill-rule="evenodd" stroke="none"/>
      <path d="M-11.3 -2.7 Q-10.25 -6.5 -7.7 -9.3 -3.95 -13.35 1.65 -12.2 L1.2 -9.75 -0.25 -9.7 Q-3.0 -9.3 -6.35 -6.25 L-7.95 -2.15 -11.3 -2.7" fill="#d0d1d6" fill-rule="evenodd" stroke="none"/>
      <path d="M-6.35 -6.25 Q-3.0 -9.3 -0.25 -9.7 L1.2 -9.75 Q4.2 -9.45 6.4 -5.55 L7.0 -4.3 7.1 -4.15 Q6.95 -3.8 7.05 -3.35 6.2 -3.25 5.95 -2.45 L5.85 -2.05 3.75 -1.65 1.8 -3.65 -0.35 -3.75 -1.85 -2.4 -6.35 -6.25" fill="#000000" fill-rule="evenodd" stroke="none"/>
      <path d="M11.05 -4.3 Q14.15 4.25 6.5 10.35 -5.0 16.75 -11.0 3.85 L-9.4 3.4 -9.45 2.35 -8.55 2.3 -8.3 2.35 Q-8.2 3.5 -7.75 4.45 L-7.2 5.55 Q-5.95 7.55 -3.75 8.5 L-2.75 8.95 Q7.4 11.0 8.6 0.0 L7.1 -4.15 7.0 -4.3 11.05 -4.3" fill="#88899b" fill-rule="evenodd" stroke="none"/>
      <path d="M5.85 -2.05 L5.95 -2.45 Q6.2 -3.25 7.05 -3.35 6.95 -3.8 7.1 -4.15 L8.6 0.0 Q7.4 11.0 -2.75 8.95 L-3.75 8.5 Q-1.65 7.1 -0.75 4.7 L0.0 3.25 1.9 2.55 2.4 3.15 2.5 4.35 2.6 4.25 Q5.3 1.6 5.85 -2.05" fill="#fffdff" fill-rule="evenodd" stroke="none"/>
      <path d="M1.8 -3.65 L3.75 -1.65 3.8 -1.05 Q3.85 1.25 1.9 2.55 L0.0 3.25 Q-1.0 3.25 -1.7 2.5 -2.45 1.75 -2.45 0.65 -0.7 0.65 0.55 -0.6 1.8 -1.85 1.8 -3.65" fill="#7d7c81" fill-rule="evenodd" stroke="none"/>
      <path d="M-1.85 -2.4 L-0.35 -3.75 1.8 -3.65 Q1.8 -1.85 0.55 -0.6 -0.7 0.65 -2.45 0.65 L-2.5 0.25 -1.85 -2.4" fill="#cfcdce" fill-rule="evenodd" stroke="none"/>
      <path d="M-6.35 -6.25 L-1.85 -2.4 -2.5 0.25 -7.75 4.45 Q-8.2 3.5 -8.3 2.35 L-8.3 2.3 Q-8.55 0.3 -7.95 -2.15 L-6.35 -6.25 M3.75 -1.65 L5.85 -2.05 Q5.3 1.6 2.6 4.25 L2.5 4.35 2.4 3.15 1.9 2.55 Q3.85 1.25 3.8 -1.05 L3.75 -1.65 M-8.55 2.3 L-8.3 2.3 -8.3 2.35 -8.55 2.3" fill="#ada3a1" fill-rule="evenodd" stroke="none"/>
      <path d="M-2.5 0.25 L-2.45 0.65 Q-2.45 1.75 -1.7 2.5 -1.0 3.25 0.0 3.25 L-0.75 4.7 Q-1.65 7.1 -3.75 8.5 -5.95 7.55 -7.2 5.55 L-7.75 4.45 -2.5 0.25" fill="#645653" fill-rule="evenodd" stroke="none"/>
      <path d="M8.65 -8.25 L11.05 -4.3 Q14.15 4.25 6.5 10.35 -5.0 16.75 -11.0 3.85 L-11.55 2.65 Q-12.4 0.2 -11.3 -2.7 -10.25 -6.5 -7.7 -9.3 -3.95 -13.35 1.65 -12.2 5.55 -11.55 8.55 -8.35 M1.2 -9.75 L-0.25 -9.7 Q-3.0 -9.3 -6.35 -6.25 M-1.85 -2.4 L-0.35 -3.75 1.8 -3.65 3.75 -1.65 M7.0 -4.3 L6.4 -5.55 Q4.2 -9.45 1.2 -9.75 M1.9 2.55 Q3.85 1.25 3.8 -1.05 L3.75 -1.65 M-2.5 0.25 L-2.45 0.65 M-1.85 -2.4 L-2.5 0.25 M-7.75 4.45 L-7.2 5.55 Q-5.95 7.55 -3.75 8.5 L-2.75 8.95 Q7.4 11.0 8.6 0.0 L7.1 -4.15 M0.0 3.25 Q-1.0 3.25 -1.7 2.5 -2.45 1.75 -2.45 0.65 M1.9 2.55 L0.0 3.25 M-8.3 2.3 Q-8.55 0.3 -7.95 -2.15 L-6.35 -6.25 M-8.3 2.35 L-8.3 2.3 M-7.75 4.45 Q-8.2 3.5 -8.3 2.35" fill="none" stroke="#000000" stroke-linecap="round" stroke-linejoin="round" stroke-width="2.0"/>
    </g>
    <g id="sprite2" transform="matrix(1.0, 0.0, 0.0, 1.0, 16.3, 18.7)">
      <use height="37.35" transform="matrix(1.0, 0.0, 0.0, 1.0, -16.3, -18.7)" width="32.55" xlink:href="#shape2"/>
    </g>
    <g id="shape2" transform="matrix(1.0, 0.0, 0.0, 1.0, 16.3, 18.7)">
      <path d="M-7.0 11.8 Q-2.6 14.9 2.6 13.85 7.85 12.7 10.6 8.15 12.7 4.6 12.2 0.5 L15.1 0.5 Q15.9 6.0 12.95 10.55 9.9 15.45 4.45 17.1 -0.8 18.55 -5.55 16.0 -10.1 13.7 -12.75 9.35 -15.35 5.1 -15.3 0.15 L-12.7 0.45 -11.9 4.95 -7.0 11.8 M-11.85 4.9 L-11.9 4.95 -11.85 4.9" fill="#babcc8" fill-rule="evenodd" stroke="none"/>
      <path d="M12.15 -0.55 L5.25 -0.45 4.7 -2.6 2.95 -5.35 Q1.7 -6.3 -0.1 -6.2 L-5.75 -13.3 Q-4.4 -14.2 -2.85 -14.95 8.35 -17.05 11.85 -2.65 L12.15 -0.55 M-0.05 -3.55 L0.3 -3.35 Q0.7 -2.8 0.05 -2.2 L-0.95 -2.85 -0.65 -3.35 -0.05 -3.55 M-1.1 0.95 L-0.95 -0.7 -0.55 -1.7 Q-0.35 -1.95 -0.15 -1.6 L0.2 -0.5 0.3 1.0 -1.1 0.95" fill="#000000" fill-rule="evenodd" stroke="none"/>
      <path d="M12.2 0.5 Q12.7 4.6 10.6 8.15 7.85 12.7 2.6 13.85 -2.6 14.9 -7.0 11.8 -4.0 8.3 -3.25 3.75 L-3.15 3.25 Q0.7 6.2 4.0 3.05 5.5 1.6 5.25 -0.45 L12.15 -0.55 12.2 0.5" fill="#f1eff0" fill-rule="evenodd" stroke="none"/>
      <path d="M15.1 0.5 L12.2 0.5 12.15 -0.55 11.85 -2.65 Q8.35 -17.05 -2.85 -14.95 -4.4 -14.2 -5.75 -13.3 L-7.3 -12.1 -9.95 -13.6 Q-8.0 -15.6 -5.3 -17.3 9.05 -19.75 13.35 -6.4 14.75 -2.7 15.1 0.5" fill="#bebec0" fill-rule="evenodd" stroke="none"/>
      <path d="M-11.85 4.9 L-11.9 4.95 -12.7 0.45 Q-12.65 -4.4 -10.65 -8.0 -9.4 -10.3 -7.3 -12.1 L-5.75 -13.3 -0.1 -6.2 -3.8 -5.35 -5.05 -0.4 -11.85 4.9" fill="#b6aeab" fill-rule="evenodd" stroke="none"/>
      <path d="M-12.7 0.45 L-15.3 0.15 Q-15.5 -7.95 -9.95 -13.6 L-7.3 -12.1 Q-9.4 -10.3 -10.65 -8.0 -12.65 -4.4 -12.7 0.45" fill="#fefeff" fill-rule="evenodd" stroke="none"/>
      <path d="M-0.1 -6.2 Q1.7 -6.3 2.95 -5.35 L4.7 -2.6 Q2.4 -2.8 1.75 -0.5 1.35 0.8 0.3 1.0 L0.2 -0.5 -0.15 -1.6 Q-0.35 -1.95 -0.55 -1.7 L-0.95 -0.7 -1.1 0.95 -2.8 0.9 -2.2 -0.2 -2.7 -1.45 -0.95 -2.85 0.05 -2.2 Q0.7 -2.8 0.3 -3.35 L-0.05 -3.55 -2.95 -3.85 -2.95 0.9 -4.75 0.75 -5.05 -0.4 -3.8 -5.35 -0.1 -6.2" fill="#b6b8c5" fill-rule="evenodd" stroke="none"/>
      <path d="M-2.95 0.9 L-2.95 -3.85 -0.05 -3.55 -0.65 -3.35 -0.95 -2.85 -2.7 -1.45 -2.2 -0.2 -2.8 0.9 -2.95 0.9" fill="#fffffd" fill-rule="evenodd" stroke="none"/>
      <path d="M5.25 -0.45 Q5.5 1.6 4.0 3.05 0.7 6.2 -3.15 3.25 L-4.75 0.75 -2.95 0.9 -2.8 0.9 -1.1 0.95 0.3 1.0 Q1.35 0.8 1.75 -0.5 2.4 -2.8 4.7 -2.6 L5.25 -0.45" fill="#808490" fill-rule="evenodd" stroke="none"/>
      <path d="M-7.0 11.8 L-11.9 4.95 -11.85 4.9 -5.05 -0.4 -4.75 0.75 -3.15 3.25 -3.25 3.75 Q-4.0 8.3 -7.0 11.8" fill="#665b59" fill-rule="evenodd" stroke="none"/>
      <path d="M12.2 0.5 Q12.7 4.6 10.6 8.15 7.85 12.7 2.6 13.85 -2.6 14.9 -7.0 11.8 L-11.9 4.95 -12.7 0.45 Q-12.65 -4.4 -10.65 -8.0 -9.4 -10.3 -7.3 -12.1 L-5.75 -13.3 Q-4.4 -14.2 -2.85 -14.95 8.35 -17.05 11.85 -2.65 L12.15 -0.55 M-15.3 0.15 Q-15.35 5.1 -12.75 9.35 -10.1 13.7 -5.55 16.0 -0.8 18.55 4.45 17.1 9.9 15.45 12.95 10.55 15.9 6.0 15.1 0.5 14.75 -2.7 13.35 -6.4 9.05 -19.75 -5.3 -17.3 -8.0 -15.6 -9.95 -13.6 -15.5 -7.95 -15.3 0.15 M12.2 0.5 L12.15 -0.55 M5.25 -0.45 Q5.5 1.6 4.0 3.05 0.7 6.2 -3.15 3.25 L-4.75 0.75 M-0.1 -6.2 Q1.7 -6.3 2.95 -5.35 L4.7 -2.6 5.25 -0.45 M-0.1 -6.2 L-3.8 -5.35 -5.05 -0.4 -4.75 0.75" fill="none" stroke="#000000" stroke-linecap="round" stroke-linejoin="round" stroke-width="2.0"/>
    </g>
  </defs>
</svg>
