<?xml version="1.0" encoding="UTF-8" standalone="no"?>
<svg xmlns:xlink="http://www.w3.org/1999/xlink" height="88.5px" width="60.6px" xmlns="http://www.w3.org/2000/svg">
  <g transform="matrix(1.0, 0.0, 0.0, 1.0, 34.3, 69.15)">
    <use height="88.5" transform="matrix(1.0, 0.0, 0.0, 1.0, -34.3, -69.15)" width="60.6" xlink:href="#sprite0"/>
    <use height="62.4" transform="matrix(1.0, 0.0, 0.0, 1.0, -21.1, -48.1)" width="42.5" xlink:href="#sprite1"/>
    <use height="50.95" transform="matrix(1.04, 0.0, 0.0, 1.04, -19.7699, -45.5198)" width="33.5" xlink:href="#sprite2"/>
  </g>
  <defs>
    <g id="sprite0" transform="matrix(1.0, 0.0, 0.0, 1.0, 30.3, 44.3)">
      <use height="88.5" transform="matrix(1.0, 0.0, 0.0, 1.0, -30.3, -44.3)" width="60.6" xlink:href="#shape0"/>
    </g>
    <g id="shape0" transform="matrix(1.0, 0.0, 0.0, 1.0, 30.3, 44.3)">
      <path d="M-23.2 -18.75 Q-22.65 -19.25 -22.45 -20.35 -22.25 -21.7 -20.95 -22.45 L-18.8 -23.6 -17.4 -24.65 Q-16.6 -25.0 -15.85 -25.5 L-15.5 -25.65 Q-13.85 -26.15 -12.65 -27.3 L-12.45 -27.4 Q-9.9 -28.9 -7.05 -29.65 L-4.4 -30.25 7.85 -32.4 9.85 -32.6 13.4 -32.7 Q15.65 -29.75 17.1 -26.4 -2.15 -23.0 -19.6 -13.2 -21.6 -15.95 -23.2 -18.75" fill="#b8b9be" fill-rule="evenodd" stroke="none"/>
      <path d="M13.4 -32.7 L9.85 -32.6 7.85 -32.4 -4.4 -30.25 -7.05 -29.65 Q-9.9 -28.9 -12.45 -27.4 L-12.65 -27.3 Q-13.85 -26.15 -15.5 -25.65 L-15.85 -25.5 Q-16.6 -25.0 -17.4 -24.65 L-18.8 -23.6 -20.95 -22.45 Q-22.25 -21.7 -22.45 -20.35 -22.65 -19.25 -23.2 -18.75 -27.55 -26.15 -29.3 -33.6 -14.6 -41.25 1.65 -43.3 9.0 -38.7 13.4 -32.7" fill="#95969a" fill-rule="evenodd" stroke="none"/>
      <path d="M-6.8 42.5 L-8.15 38.15 -4.85 37.55 Q-3.9 37.35 -3.05 36.75 L-2.35 36.5 Q2.9 36.25 7.7 34.5 L12.2 33.0 15.55 31.85 17.55 31.1 22.45 29.3 29.1 26.75 29.3 32.2 Q17.15 38.95 2.7 42.5 -2.05 43.95 -6.8 42.5" fill="#908983" fill-rule="evenodd" stroke="none"/>
      <path d="M-19.6 -13.2 Q-2.15 -23.0 17.1 -26.4 27.75 2.2 29.1 26.75 L22.45 29.3 17.55 31.1 15.55 31.85 12.2 33.0 7.7 34.5 Q2.9 36.25 -2.35 36.5 L-3.05 36.75 Q-3.9 37.35 -4.85 37.55 L-8.15 38.15 Q-12.0 25.4 -14.85 12.75 L-16.95 2.55 -19.6 -13.2" fill="#b5b1ae" fill-rule="evenodd" stroke="none"/>
      <path d="M-23.2 -18.75 Q-21.6 -15.95 -19.6 -13.2 L-16.95 2.55 -18.55 0.3 -20.2 -1.75 Q-23.05 -5.05 -25.6 -8.6 -27.0 -15.6 -28.0 -22.6 L-29.3 -33.6 Q-27.55 -26.15 -23.2 -18.75" fill="#575b64" fill-rule="evenodd" stroke="none"/>
      <path d="M-25.6 -8.6 Q-23.05 -5.05 -20.2 -1.75 L-18.55 0.3 -16.95 2.55 -14.85 12.75 Q-12.0 25.4 -8.15 38.15 L-6.8 42.5 Q-8.3 41.0 -9.85 38.7 -13.35 33.4 -16.9 23.95 -20.4 13.5 -23.0 3.0 L-25.6 -8.6" fill="#000000" fill-rule="evenodd" stroke="none"/>
      <path d="M-23.2 -18.75 Q-21.6 -15.95 -19.6 -13.2 -2.15 -23.0 17.1 -26.4 15.65 -29.75 13.4 -32.7 9.0 -38.7 1.65 -43.3 -14.6 -41.25 -29.3 -33.6 -27.55 -26.15 -23.2 -18.75 M-25.6 -8.6 Q-27.0 -15.6 -28.0 -22.6 L-29.3 -33.6 M-16.95 2.55 L-19.6 -13.2 M-8.15 38.15 Q-12.0 25.4 -14.85 12.75 L-16.95 2.55 M-6.8 42.5 L-8.15 38.15 M29.1 26.75 Q27.75 2.2 17.1 -26.4 M-6.8 42.5 Q-8.3 41.0 -9.85 38.7 -13.35 33.4 -16.9 23.95 -20.4 13.5 -23.0 3.0 L-25.6 -8.6 M29.1 26.75 L29.3 32.2 Q17.15 38.95 2.7 42.5 -2.05 43.95 -6.8 42.5" fill="none" stroke="#000000" stroke-linecap="round" stroke-linejoin="round" stroke-width="2.0"/>
    </g>
    <g id="sprite1" transform="matrix(1.0, 0.0, 0.0, 1.0, 21.25, 31.2)">
      <use height="62.4" transform="matrix(1.0, 0.0, 0.0, 1.0, -21.25, -31.2)" width="42.5" xlink:href="#shape1"/>
    </g>
    <g id="shape1" transform="matrix(1.0, 0.0, 0.0, 1.0, 21.25, 31.2)">
      <path d="M13.35 -22.3 L13.3 -22.25 13.45 -21.95 14.65 -17.55 14.65 -17.2 14.15 -13.55 13.15 -8.65 12.95 -7.65 Q12.25 -4.85 10.8 -2.35 9.15 0.65 6.45 2.7 3.4 5.0 -0.3 6.25 L-0.8 6.35 -5.65 6.55 Q-9.85 6.35 -13.85 4.9 -15.0 4.5 -15.8 3.7 -18.75 -7.4 -20.25 -18.65 -5.4 -27.4 10.9 -30.2 L13.35 -22.3" fill="#4f5660" fill-rule="evenodd" stroke="none"/>
      <path d="M12.95 -7.65 L13.15 -8.65 14.15 -13.55 14.65 -17.2 14.75 -17.2 Q20.0 2.35 20.25 17.0 18.65 17.25 17.1 17.95 L15.7 18.6 12.2 19.9 Q13.45 18.2 13.5 16.1 L14.0 8.5 Q14.25 5.8 13.5 3.35 13.4 3.15 13.45 2.95 L13.3 -4.65 13.3 -6.05 Q13.3 -7.05 12.95 -7.65" fill="#c5c6ca" fill-rule="evenodd" stroke="none"/>
      <path d="M-5.65 6.55 L-0.8 6.35 -0.3 6.25 Q3.4 5.0 6.45 2.7 9.15 0.65 10.8 -2.35 12.25 -4.85 12.95 -7.65 13.3 -7.05 13.3 -6.05 L13.3 -4.65 13.45 2.95 Q13.4 3.15 13.5 3.35 14.25 5.8 14.0 8.5 L13.5 16.1 Q13.45 18.2 12.2 19.9 L12.0 20.15 10.75 21.45 Q9.05 23.05 6.8 23.75 L6.15 23.95 Q4.65 24.35 3.4 23.65 L-0.7 23.95 -2.2 23.4 Q-4.55 22.25 -5.2 19.7 L-5.45 18.95 -5.95 17.35 Q-6.55 15.05 -6.45 12.6 L-6.05 8.8 -5.65 6.55" fill="#a2a3a8" fill-rule="evenodd" stroke="none"/>
      <path d="M12.2 19.9 L15.7 18.6 17.1 17.95 Q18.65 17.25 20.25 17.0 L20.2 21.95 Q6.8 28.8 -6.65 30.2 L-8.4 26.0 Q-7.95 25.65 -7.25 25.45 L-4.3 24.9 -1.65 24.3 -0.7 23.95 3.4 23.65 Q4.65 24.35 6.15 23.95 L6.8 23.75 Q9.05 23.05 10.75 21.45 L12.0 20.15 12.2 19.9" fill="#6b6e75" fill-rule="evenodd" stroke="none"/>
      <path d="M-15.8 3.7 Q-15.0 4.5 -13.85 4.9 -9.85 6.35 -5.65 6.55 L-6.05 8.8 -6.45 12.6 Q-6.55 15.05 -5.95 17.35 L-5.45 18.95 -5.2 19.7 Q-4.55 22.25 -2.2 23.4 L-0.7 23.95 -1.65 24.3 -4.3 24.9 -7.25 25.45 Q-7.95 25.65 -8.4 26.0 -12.85 14.9 -15.8 3.7" fill="#a1a2a7" fill-rule="evenodd" stroke="none"/>
      <path d="M13.35 -22.3 L10.9 -30.2 Q-5.4 -27.4 -20.25 -18.65 M14.65 -17.55 L13.45 -21.95 13.35 -22.3 M14.75 -17.2 L14.65 -17.55 M20.25 17.0 Q20.0 2.35 14.75 -17.2 M-6.65 30.2 Q6.8 28.8 20.2 21.95 L20.25 17.0" fill="none" stroke="#000000" stroke-linecap="round" stroke-linejoin="round" stroke-width="2.0"/>
      <path d="M-20.25 -18.65 Q-18.75 -7.4 -15.8 3.7 -12.85 14.9 -8.4 26.0 L-6.65 30.2" fill="none" stroke="#000000" stroke-linecap="round" stroke-linejoin="round" stroke-width="2.0"/>
    </g>
    <g id="sprite2" transform="matrix(1.0, 0.0, 0.0, 1.0, 16.75, 25.5)">
      <use height="50.95" transform="matrix(1.0, 0.0, 0.0, 1.0, -16.75, -25.5)" width="33.5" xlink:href="#shape2"/>
    </g>
    <g id="shape2" transform="matrix(1.0, 0.0, 0.0, 1.0, 16.75, 25.5)">
      <path d="M-15.35 -2.95 L-11.9 -4.5 -9.3 -5.55 -7.0 -5.8 Q-4.45 -6.9 -1.55 -6.95 0.75 -7.0 2.8 -8.15 5.2 -9.45 7.8 -10.0 10.55 -10.6 12.95 -12.05 L14.85 -13.1 Q16.1 -9.25 15.65 -5.45 15.2 -1.2 13.4 1.7 L10.8 0.45 4.65 -1.9 Q3.95 -2.15 3.65 -2.8 L0.65 -3.25 -5.75 2.6 -9.0 5.95 Q-13.45 3.3 -15.35 -2.95" fill="#989ca5" fill-rule="evenodd" stroke="none"/>
      <path d="M14.85 -13.1 L12.95 -12.05 Q10.55 -10.6 7.8 -10.0 5.2 -9.45 2.8 -8.15 0.75 -7.0 -1.55 -6.95 -4.45 -6.9 -7.0 -5.8 L-9.3 -5.55 -11.9 -4.5 -15.35 -2.95 -15.75 -4.4 Q-16.2 -20.15 -2.8 -23.65 6.05 -26.65 11.75 -19.05 13.8 -16.05 14.85 -13.1" fill="#d2d3d8" fill-rule="evenodd" stroke="none"/>
      <path d="M-9.0 5.95 L-5.75 2.6 0.65 -3.25 3.65 -2.8 Q3.95 -2.15 4.65 -1.9 L10.8 0.45 13.4 1.7 Q10.2 6.7 2.9 7.55 -4.4 8.7 -9.0 5.95" fill="#c7c8cc" fill-rule="evenodd" stroke="none"/>
      <path d="M-15.35 -2.95 Q-13.45 3.3 -9.0 5.95 -4.4 8.7 2.9 7.55 10.2 6.7 13.4 1.7 15.2 -1.2 15.65 -5.45 16.1 -9.25 14.85 -13.1 13.8 -16.05 11.75 -19.05 6.05 -26.65 -2.8 -23.65 M-15.75 -4.4 L-15.35 -2.95" fill="none" stroke="#000000" stroke-linecap="round" stroke-linejoin="round" stroke-width="2.0"/>
      <path d="M-2.8 -23.65 Q-16.2 -20.15 -15.75 -4.4" fill="none" stroke="#000000" stroke-linecap="round" stroke-linejoin="round" stroke-width="2.0"/>
      <path d="M3.95 -11.95 L5.3 -13.3 Q6.75 -14.6 6.8 -16.65 L6.75 -17.35 Q9.3 -15.25 10.3 -10.8 12.1 -2.9 5.35 1.8 -0.15 5.0 -4.65 2.85 L-4.6 2.7 Q-1.95 1.8 -1.05 -1.0 -0.45 -1.6 -0.25 -2.35 L0.2 -2.35 Q4.1 -3.6 5.55 -7.1 L5.55 -7.2 5.55 -7.3 5.5 -8.25 Q5.25 -10.6 3.95 -11.95" fill="#ffffff" fill-rule="evenodd" stroke="none"/>
      <path d="M6.75 -17.35 L6.8 -16.65 Q6.75 -14.6 5.3 -13.3 L3.95 -11.95 Q2.7 -13.15 0.6 -13.5 -1.05 -13.55 -2.25 -12.95 L-2.5 -14.4 Q-2.75 -16.8 -1.85 -18.85 L-1.6 -19.2 -1.45 -19.25 Q3.75 -19.95 6.75 -17.35 M-0.25 -2.35 Q-0.45 -1.6 -1.05 -1.0 -1.95 1.8 -4.6 2.7 L-4.75 2.75 Q-6.8 1.7 -8.65 -0.5 L-8.9 -1.15 Q-8.55 -2.9 -7.2 -4.25 L-5.2 -5.55 Q-4.75 -4.4 -3.9 -3.65 -2.6 -2.5 -0.25 -2.35" fill="#7c8187" fill-rule="evenodd" stroke="none"/>
      <path d="M3.95 -11.95 Q5.25 -10.6 5.5 -8.25 2.6 -8.3 0.2 -9.8 -0.85 -9.7 -1.2 -8.65 L-1.25 -8.3 -1.15 -6.95 Q-1.7 -4.6 -3.9 -3.65 -4.75 -4.4 -5.2 -5.55 L-5.55 -6.9 Q-5.0 -11.6 -2.25 -12.95 -1.05 -13.55 0.6 -13.5 2.7 -13.15 3.95 -11.95" fill="#d9dade" fill-rule="evenodd" stroke="none"/>
      <path d="M5.5 -8.25 L5.55 -7.3 5.55 -7.2 5.55 -7.1 Q4.1 -3.6 0.2 -2.35 L-0.25 -2.35 Q-2.6 -2.5 -3.9 -3.65 -1.7 -4.6 -1.15 -6.95 L-1.25 -8.3 -1.2 -8.65 Q-0.85 -9.7 0.2 -9.8 2.6 -8.3 5.5 -8.25 M-1.6 -19.2 L-1.85 -18.85 Q-2.75 -16.8 -2.5 -14.4 L-2.25 -12.95 Q-5.0 -11.6 -5.55 -6.9 L-5.2 -5.55 -7.2 -4.25 Q-8.55 -2.9 -8.9 -1.15 -13.8 -14.6 -1.6 -19.2" fill="#000000" fill-rule="evenodd" stroke="none"/>
      <path d="M3.95 -11.95 Q5.25 -10.6 5.5 -8.25 L5.55 -7.3 5.55 -7.2 5.55 -7.1 Q4.1 -3.6 0.2 -2.35 L-0.25 -2.35 Q-2.6 -2.5 -3.9 -3.65 M-2.25 -12.95 Q-1.05 -13.55 0.6 -13.5 2.7 -13.15 3.95 -11.95 M-5.2 -5.55 L-5.55 -6.9 Q-5.0 -11.6 -2.25 -12.95 M-5.2 -5.55 Q-4.75 -4.4 -3.9 -3.65" fill="none" stroke="#000000" stroke-linecap="round" stroke-linejoin="round" stroke-width="2.0"/>
      <path d="M-4.65 2.85 Q-0.15 5.0 5.35 1.8 12.1 -2.9 10.3 -10.8 9.3 -15.25 6.75 -17.35 3.75 -19.95 -1.45 -19.25 L-1.6 -19.2 M-4.75 2.75 Q-6.8 1.7 -8.65 -0.5 L-8.9 -1.15 Q-13.8 -14.6 -1.6 -19.2 M-4.75 2.75 L-4.65 2.85" fill="none" stroke="#000000" stroke-linecap="round" stroke-linejoin="round" stroke-width="2.0"/>
      <path d="M9.6 17.4 L11.8 15.4 Q12.4 14.8 13.15 14.35 L14.0 13.8 Q14.9 19.0 11.35 21.85 8.1 24.45 4.9 24.45 L5.55 22.8 5.75 22.0 Q6.0 20.15 7.5 18.95 L9.6 17.4" fill="#a4a7ac" fill-rule="evenodd" stroke="none"/>
      <path d="M14.0 13.8 L13.15 14.35 Q12.4 14.8 11.8 15.4 L9.6 17.4 10.7 15.95 10.6 14.5 Q10.35 12.7 9.45 11.45 10.95 10.55 12.65 9.95 L13.3 11.15 13.9 13.15 14.0 13.8 M7.5 18.95 Q6.0 20.15 5.75 22.0 L5.55 22.8 4.9 24.45 3.4 24.3 2.35 24.05 Q-1.35 22.2 -2.0 17.35 L-1.75 17.3 Q-0.65 16.2 0.9 16.1 L1.1 16.0 1.25 16.95 Q1.65 18.3 2.9 19.15 L3.15 19.25 4.85 19.9 6.0 19.6 7.5 18.95 M3.2 19.15 L3.15 19.25 2.9 19.15 3.2 19.15" fill="#818890" fill-rule="evenodd" stroke="none"/>
      <path d="M12.65 9.95 Q10.95 10.55 9.45 11.45 L8.1 10.1 6.9 9.45 Q3.5 9.45 1.65 13.05 L1.3 13.75 Q1.05 14.95 1.1 16.0 L0.9 16.1 Q-0.65 16.2 -1.75 17.3 L-2.0 17.35 Q-2.3 15.4 -2.1 12.95 -0.2 6.9 5.2 6.3 10.2 6.2 12.65 9.95" fill="#d2d3d7" fill-rule="evenodd" stroke="none"/>
      <path d="M9.6 17.4 L7.5 18.95 6.0 19.6 4.85 19.9 3.15 19.25 3.2 19.15 3.7 18.95 Q5.05 17.6 5.75 15.9 6.75 15.8 6.95 14.85 L6.95 13.75 7.6 12.75 8.2 11.85 8.35 10.8 8.1 10.1 9.45 11.45 Q10.35 12.7 10.6 14.5 L10.7 15.95 9.6 17.4" fill="#fbfbfd" fill-rule="evenodd" stroke="none"/>
      <path d="M8.1 10.1 L8.35 10.8 8.2 11.85 7.6 12.75 6.95 13.75 6.8 13.45 Q6.4 12.9 5.5 12.75 5.15 12.8 4.75 13.0 3.8 13.55 4.0 14.6 L4.05 14.7 Q4.25 16.05 5.7 15.9 L5.75 15.9 Q5.05 17.6 3.7 18.95 L3.2 19.15 2.9 19.15 Q1.65 18.3 1.25 16.95 L1.1 16.0 Q1.05 14.95 1.3 13.75 L1.65 13.05 Q3.5 9.45 6.9 9.45 L8.1 10.1" fill="#585b62" fill-rule="evenodd" stroke="none"/>
      <path d="M6.95 13.75 L6.95 14.85 Q6.75 15.8 5.75 15.9 L5.7 15.9 Q4.25 16.05 4.05 14.7 L4.0 14.6 Q3.8 13.55 4.75 13.0 5.15 12.8 5.5 12.75 6.4 12.9 6.8 13.45 L6.95 13.75" fill="#000000" fill-rule="evenodd" stroke="none"/>
      <path d="M9.6 17.4 L7.5 18.95 M4.9 24.45 Q8.1 24.45 11.35 21.85 14.9 19.0 14.0 13.8 L13.9 13.15 13.3 11.15 M9.45 11.45 Q10.35 12.7 10.6 14.5 L10.7 15.95 9.6 17.4 M8.1 10.1 L9.45 11.45 M3.15 19.25 L4.85 19.9 6.0 19.6 7.5 18.95 M2.9 19.15 L3.15 19.25 M2.9 19.15 Q1.65 18.3 1.25 16.95 L1.1 16.0 Q1.05 14.95 1.3 13.75 L1.65 13.05 Q3.5 9.45 6.9 9.45 L8.1 10.1 M-2.0 17.35 Q-1.35 22.2 2.35 24.05 L3.4 24.3 4.9 24.45 M-2.0 17.35 Q-2.3 15.4 -2.1 12.95 -0.2 6.9 5.2 6.3" fill="none" stroke="#000000" stroke-linecap="round" stroke-linejoin="round" stroke-width="2.0"/>
      <path d="M13.3 11.15 L12.65 9.95 M5.2 6.3 Q10.2 6.2 12.65 9.95" fill="none" stroke="#000000" stroke-linecap="round" stroke-linejoin="round" stroke-width="2.0"/>
    </g>
  </defs>
</svg>
