<?xml version="1.0" encoding="UTF-8" standalone="no"?>
<svg xmlns:xlink="http://www.w3.org/1999/xlink" height="88.5px" width="60.6px" xmlns="http://www.w3.org/2000/svg">
  <g transform="matrix(1.0, 0.0, 0.0, 1.0, 30.3, 44.3)">
    <use height="88.5" transform="matrix(1.0, 0.0, 0.0, 1.0, -30.3, -44.3)" width="60.6" xlink:href="#shape0"/>
  </g>
  <defs>
    <g id="shape0" transform="matrix(1.0, 0.0, 0.0, 1.0, 30.3, 44.3)">
      <path d="M-23.2 -18.75 Q-22.65 -19.25 -22.45 -20.35 -22.25 -21.7 -20.95 -22.45 L-18.8 -23.6 -17.4 -24.65 Q-16.6 -25.0 -15.85 -25.5 L-15.5 -25.65 Q-13.85 -26.15 -12.65 -27.3 L-12.45 -27.4 Q-9.9 -28.9 -7.05 -29.65 L-4.4 -30.25 7.85 -32.4 9.85 -32.6 13.4 -32.7 Q15.65 -29.75 17.1 -26.4 -2.15 -23.0 -19.6 -13.2 -21.6 -15.95 -23.2 -18.75" fill="#b8b9be" fill-rule="evenodd" stroke="none"/>
      <path d="M13.4 -32.7 L9.85 -32.6 7.85 -32.4 -4.4 -30.25 -7.05 -29.65 Q-9.9 -28.9 -12.45 -27.4 L-12.65 -27.3 Q-13.85 -26.15 -15.5 -25.65 L-15.85 -25.5 Q-16.6 -25.0 -17.4 -24.65 L-18.8 -23.6 -20.95 -22.45 Q-22.25 -21.7 -22.45 -20.35 -22.65 -19.25 -23.2 -18.75 -27.55 -26.15 -29.3 -33.6 -14.6 -41.25 1.65 -43.3 9.0 -38.7 13.4 -32.7" fill="#95969a" fill-rule="evenodd" stroke="none"/>
      <path d="M-6.8 42.5 L-8.15 38.15 -4.85 37.55 Q-3.9 37.35 -3.05 36.75 L-2.35 36.5 Q2.9 36.25 7.7 34.5 L12.2 33.0 15.55 31.85 17.55 31.1 22.45 29.3 29.1 26.75 29.3 32.2 Q17.15 38.95 2.7 42.5 -2.05 43.95 -6.8 42.5" fill="#908983" fill-rule="evenodd" stroke="none"/>
      <path d="M-19.6 -13.2 Q-2.15 -23.0 17.1 -26.4 27.75 2.2 29.1 26.75 L22.45 29.3 17.55 31.1 15.55 31.85 12.2 33.0 7.7 34.5 Q2.9 36.25 -2.35 36.5 L-3.05 36.75 Q-3.9 37.35 -4.85 37.55 L-8.15 38.15 Q-12.0 25.4 -14.85 12.75 L-16.95 2.55 -19.6 -13.2" fill="#b5b1ae" fill-rule="evenodd" stroke="none"/>
      <path d="M-23.2 -18.75 Q-21.6 -15.95 -19.6 -13.2 L-16.95 2.55 -18.55 0.3 -20.2 -1.75 Q-23.05 -5.05 -25.6 -8.6 -27.0 -15.6 -28.0 -22.6 L-29.3 -33.6 Q-27.55 -26.15 -23.2 -18.75" fill="#575b64" fill-rule="evenodd" stroke="none"/>
      <path d="M-25.6 -8.6 Q-23.05 -5.05 -20.2 -1.75 L-18.55 0.3 -16.95 2.55 -14.85 12.75 Q-12.0 25.4 -8.15 38.15 L-6.8 42.5 Q-8.3 41.0 -9.85 38.7 -13.35 33.4 -16.9 23.95 -20.4 13.5 -23.0 3.0 L-25.6 -8.6" fill="#000000" fill-rule="evenodd" stroke="none"/>
      <path d="M-23.2 -18.75 Q-21.6 -15.95 -19.6 -13.2 -2.15 -23.0 17.1 -26.4 15.65 -29.75 13.4 -32.7 9.0 -38.7 1.65 -43.3 -14.6 -41.25 -29.3 -33.6 -27.55 -26.15 -23.2 -18.75 M-25.6 -8.6 Q-27.0 -15.6 -28.0 -22.6 L-29.3 -33.6 M-16.95 2.55 L-19.6 -13.2 M-8.15 38.15 Q-12.0 25.4 -14.85 12.75 L-16.95 2.55 M-6.8 42.5 L-8.15 38.15 M29.1 26.75 Q27.75 2.2 17.1 -26.4 M-6.8 42.5 Q-8.3 41.0 -9.85 38.7 -13.35 33.4 -16.9 23.95 -20.4 13.5 -23.0 3.0 L-25.6 -8.6 M29.1 26.75 L29.3 32.2 Q17.15 38.95 2.7 42.5 -2.05 43.95 -6.8 42.5" fill="none" stroke="#000000" stroke-linecap="round" stroke-linejoin="round" stroke-width="2.0"/>
    </g>
  </defs>
</svg>
