<?xml version="1.0" encoding="UTF-8" standalone="no"?>
<svg xmlns:xlink="http://www.w3.org/1999/xlink" height="141.75px" width="92.85px" xmlns="http://www.w3.org/2000/svg">
  <g transform="matrix(1.0, 0.0, 0.0, 1.0, 46.4, 120.85)">
    <use height="141.75" transform="matrix(1.0, 0.0, 0.0, 1.0, -43.9, -120.85)" width="90.35" xlink:href="#sprite0"/>
    <use height="53.8" transform="matrix(1.0, 0.0, 0.0, 1.0, -46.4, -43.25)" width="42.6" xlink:href="#sprite1"/>
  </g>
  <defs>
    <g id="sprite0" transform="matrix(1.0, 0.0, 0.0, 1.0, 45.15, 70.85)">
      <use height="141.75" transform="matrix(1.0, 0.0, 0.0, 1.0, -45.15, -70.85)" width="90.35" xlink:href="#shape0"/>
    </g>
    <g id="shape0" transform="matrix(1.0, 0.0, 0.0, 1.0, 45.15, 70.85)">
      <path d="M40.4 -22.15 L33.15 -21.15 30.65 -38.25 Q37.8 -34.9 40.4 -22.15 M36.85 4.4 Q41.4 8.1 43.25 14.2 L38.45 15.15 36.85 4.4" fill="#fcfcfe" fill-rule="evenodd" stroke="none"/>
      <path d="M33.15 -21.15 L40.4 -22.15 41.4 -15.4 41.5 -12.5 34.75 -10.1 33.15 -21.15 M43.25 14.2 Q43.95 16.6 44.2 19.4 L44.15 22.55 39.75 24.05 38.45 15.15 43.25 14.2" fill="#a8abb0" fill-rule="evenodd" stroke="none"/>
      <path d="M34.75 -10.1 L41.5 -12.5 Q41.6 0.6 36.85 4.4 L34.75 -10.1 M44.15 22.55 Q43.7 31.2 41.4 35.5 L39.75 24.05 44.15 22.55" fill="#000000" fill-rule="evenodd" stroke="none"/>
      <path d="M40.4 -22.15 Q37.8 -34.9 30.65 -38.25 M41.4 -15.4 L40.4 -22.15" fill="none" stroke="#000000" stroke-linecap="round" stroke-linejoin="round" stroke-width="2.0"/>
      <path d="M41.5 -12.5 L41.4 -15.4 M41.5 -12.5 Q41.6 0.6 36.85 4.4 41.4 8.1 43.25 14.2 43.95 16.6 44.2 19.4 L44.15 22.55 Q43.7 31.2 41.4 35.5" fill="none" stroke="#000000" stroke-linecap="round" stroke-linejoin="round" stroke-width="2.0"/>
      <path d="M8.8 -64.15 L2.5 -62.25 2.4 -62.2 -8.05 -59.15 Q-14.05 -57.25 -20.1 -55.65 -27.2 -53.75 -33.9 -51.1 -37.35 -49.75 -40.45 -47.9 L-41.0 -48.5 -44.15 -52.15 -41.0 -48.5 -40.45 -47.9 -42.05 -46.95 -42.1 -46.9 -44.15 -52.15 Q-41.7 -54.25 -38.2 -55.4 L-31.55 -57.45 -24.7 -59.5 Q-21.35 -60.45 -18.05 -62.0 L-11.6 -64.95 Q-8.25 -66.4 -5.25 -68.1 L-1.0 -69.85 3.55 -67.8 Q6.45 -66.65 8.8 -64.15 M-7.0 -62.6 L-1.25 -64.9 2.4 -62.2 -1.25 -64.9 -7.0 -62.6" fill="#dddee0" fill-rule="evenodd" stroke="none"/>
      <path d="M2.4 -62.2 L2.5 -62.25 8.8 -64.15 9.3 -63.6 10.95 -61.75 12.35 -60.2 Q7.75 -59.2 3.5 -56.8 L-1.8 -53.75 -2.2 -53.5 Q-5.1 -51.95 -8.3 -50.85 L-13.4 -49.05 -13.75 -48.9 Q-18.95 -47.1 -24.25 -45.6 -28.05 -44.55 -31.55 -42.7 L-33.8 -41.5 -35.65 -43.25 -38.15 -45.5 -40.45 -47.9 Q-37.35 -49.75 -33.9 -51.1 -27.2 -53.75 -20.1 -55.65 -14.05 -57.25 -8.05 -59.15 L2.4 -62.2 3.0 -61.75 2.4 -62.2" fill="#d1d2d7" fill-rule="evenodd" stroke="none"/>
      <path d="M23.85 -50.35 L26.05 -48.85 26.5 -48.5 30.35 -45.4 Q33.1 -42.9 35.1 -39.8 L28.75 -35.85 Q27.9 -35.35 27.3 -34.65 25.05 -32.1 22.05 -31.8 18.75 -31.55 16.35 -29.15 L14.45 -27.65 Q11.65 -25.9 8.75 -24.9 6.1 -24.05 3.7 -22.8 L0.75 -20.9 Q-2.1 -18.65 -5.65 -17.75 -9.35 -16.85 -12.35 -14.6 -15.85 -16.8 -17.6 -19.85 -19.2 -22.75 -21.4 -25.55 L-21.95 -26.25 -24.25 -29.15 Q-18.75 -33.95 -11.75 -36.5 -7.55 -38.05 -3.25 -39.3 5.55 -41.9 14.05 -44.85 L15.35 -45.45 Q19.45 -48.2 23.8 -50.35 L23.85 -50.35 M-30.6 -9.55 Q-31.0 -10.35 -31.05 -11.55 -31.1 -12.5 -30.7 -13.2 L-30.05 -10.95 -29.25 -8.3 Q-30.15 -8.7 -30.6 -9.55" fill="#a2a5ac" fill-rule="evenodd" stroke="none"/>
      <path d="M6.9 69.9 L-5.45 51.1 -6.9 41.35 0.9 53.15 -0.95 44.25 Q-5.0 25.4 -10.25 6.6 -13.0 -3.15 -16.05 -12.9 L-29.95 -29.75 -34.95 -35.85 Q-31.25 -25.75 -28.2 -15.5 L-28.0 -14.85 -24.15 -0.9 -21.8 9.0 -19.8 18.75 -19.05 22.95 -10.5 35.9 -10.5 35.95 -9.4 45.1 -20.5 28.2 Q-21.65 22.35 -22.95 16.5 L-23.2 15.35 -23.5 14.2 -23.75 13.15 -23.75 13.0 -24.55 9.65 Q-26.65 0.9 -29.15 -7.85 L-29.25 -8.3 -30.05 -10.95 -30.7 -13.2 Q-33.2 -21.6 -36.05 -29.95 L-38.7 -37.65 -39.0 -38.5 -41.25 -44.55 -42.1 -46.9 -42.05 -46.95 -40.45 -47.9 -38.15 -45.5 -35.65 -43.25 -33.8 -41.5 -32.45 -40.0 -31.0 -38.05 -26.65 -32.1 -24.25 -29.15 -21.95 -26.25 -21.4 -25.55 Q-19.2 -22.75 -17.6 -19.85 -15.85 -16.8 -12.35 -14.6 L-0.6 29.75 6.9 69.9" fill="#909398" fill-rule="evenodd" stroke="none"/>
      <path d="M-5.45 51.1 L-9.4 45.1 -10.5 35.95 -10.5 35.9 -7.65 34.7 -3.7 40.3 -6.9 41.35 -5.45 51.1 M-28.0 -14.85 L-28.2 -15.5 Q-31.25 -25.75 -34.95 -35.85 L-29.95 -29.75 Q-27.35 -23.1 -25.2 -16.2 L-24.95 -15.45 -28.0 -14.85 M-10.5 35.95 L-6.9 41.35 -10.5 35.95" fill="#000000" fill-rule="evenodd" stroke="none"/>
      <path d="M-29.95 -29.75 L-16.05 -12.9 Q-13.0 -3.15 -10.25 6.6 -17.35 -7.7 -24.95 -15.45 L-25.2 -16.2 Q-27.35 -23.1 -29.95 -29.75" fill="#383c45" fill-rule="evenodd" stroke="none"/>
      <path d="M-22.95 16.5 L-23.05 16.35 -23.2 15.35 -22.95 16.5 M-29.15 -7.85 Q-29.95 -8.1 -30.4 -9.0 L-30.6 -9.55 Q-30.15 -8.7 -29.25 -8.3 L-29.15 -7.85 M-28.0 -14.85 L-24.95 -15.45 Q-22.95 -9.0 -21.35 -2.35 L-21.6 -2.3 Q-23.05 -1.9 -24.15 -0.9 L-28.0 -14.85 M-18.95 8.55 L-17.35 17.95 -16.85 21.65 -19.05 22.95 -19.8 18.75 -21.8 9.0 -18.95 8.55" fill="#797e84" fill-rule="evenodd" stroke="none"/>
      <path d="M-21.35 -2.35 L-18.95 8.55 -21.8 9.0 -24.15 -0.9 Q-23.05 -1.9 -21.6 -2.3 L-21.35 -2.35" fill="#a2a6a9" fill-rule="evenodd" stroke="none"/>
      <path d="M-10.25 6.6 Q-5.0 25.4 -0.95 44.25 L-3.7 40.3 -7.65 34.7 -16.85 21.65 -17.35 17.95 -18.95 8.55 -21.35 -2.35 Q-22.95 -9.0 -24.95 -15.45 -17.35 -7.7 -10.25 6.6" fill="#5b6268" fill-rule="evenodd" stroke="none"/>
      <path d="M41.5 27.2 L43.95 47.4 Q41.35 47.9 39.5 48.95 36.55 50.55 33.75 52.85 L29.3 55.95 25.35 58.25 Q22.0 60.2 19.2 62.1 L12.9 65.9 Q9.6 67.6 6.9 69.9 L-0.6 29.75 -12.35 -14.6 -10.8 -10.75 Q12.35 45.55 41.5 27.2" fill="#2f3841" fill-rule="evenodd" stroke="none"/>
      <path d="M-0.95 44.25 L0.9 53.15 -6.9 41.35 -3.7 40.3 -0.95 44.25 M-16.85 21.65 L-7.65 34.7 -10.5 35.9 -19.05 22.95 -16.85 21.65" fill="#bbbcc1" fill-rule="evenodd" stroke="none"/>
      <path d="M12.35 -60.2 L13.85 -58.55 14.4 -57.95 Q16.95 -55.2 20.05 -53.0 L23.85 -50.35 23.8 -50.35 Q19.45 -48.2 15.35 -45.45 L14.05 -44.85 Q5.55 -41.9 -3.25 -39.3 -7.55 -38.05 -11.75 -36.5 -18.75 -33.95 -24.25 -29.15 L-26.65 -32.1 -31.0 -38.05 -32.45 -40.0 -33.8 -41.5 -31.55 -42.7 Q-28.05 -44.55 -24.25 -45.6 -18.95 -47.1 -13.75 -48.9 L-13.4 -49.05 -8.3 -50.85 Q-5.1 -51.95 -2.2 -53.5 L-1.8 -53.75 3.5 -56.8 Q7.75 -59.2 12.35 -60.2" fill="url(#gradient0)" fill-rule="evenodd" stroke="none"/>
      <path d="M35.1 -39.8 L38.65 4.15 41.5 27.2 Q12.35 45.55 -10.8 -10.75 L-12.35 -14.6 Q-9.35 -16.85 -5.65 -17.75 -2.1 -18.65 0.75 -20.9 L3.7 -22.8 Q6.1 -24.05 8.75 -24.9 11.65 -25.9 14.45 -27.65 L16.35 -29.15 Q18.75 -31.55 22.05 -31.8 25.05 -32.1 27.3 -34.65 27.9 -35.35 28.75 -35.85 L35.1 -39.8" fill="url(#gradient1)" fill-rule="evenodd" stroke="none"/>
      <path d="M8.8 -64.15 Q6.45 -66.65 3.55 -67.8 L-1.0 -69.85 -5.25 -68.1 Q-8.25 -66.4 -11.6 -64.95 L-18.05 -62.0 Q-21.35 -60.45 -24.7 -59.5 L-31.55 -57.45 -38.2 -55.4 Q-41.7 -54.25 -44.15 -52.15 L-41.0 -48.5 -40.45 -47.9 M8.8 -64.15 L9.3 -63.6 10.95 -61.75 12.35 -60.2 13.85 -58.55 14.4 -57.95 Q16.95 -55.2 20.05 -53.0 L23.85 -50.35 26.05 -48.85 26.5 -48.5 30.35 -45.4 Q33.1 -42.9 35.1 -39.8 L38.65 4.15 41.5 27.2 43.95 47.4 Q41.35 47.9 39.5 48.95 36.55 50.55 33.75 52.85 L29.3 55.95 25.35 58.25 Q22.0 60.2 19.2 62.1 L12.9 65.9 Q9.6 67.6 6.9 69.9 L-5.45 51.1 -9.4 45.1 -20.5 28.2 Q-21.65 22.35 -22.95 16.5 L-23.2 15.35 -23.5 14.2 -23.75 13.15 -23.75 13.0 -24.55 9.65 Q-26.65 0.9 -29.15 -7.85 L-29.25 -8.3 -30.05 -10.95 -30.7 -13.2 Q-33.2 -21.6 -36.05 -29.95 L-38.7 -37.65 -39.0 -38.5 -41.25 -44.55 -42.1 -46.9 -44.15 -52.15 M-12.35 -14.6 Q-9.35 -16.85 -5.65 -17.75 -2.1 -18.65 0.75 -20.9 L3.7 -22.8 Q6.1 -24.05 8.75 -24.9 11.65 -25.9 14.45 -27.65 L16.35 -29.15 Q18.75 -31.55 22.05 -31.8 25.05 -32.1 27.3 -34.65 27.9 -35.35 28.75 -35.85 L35.1 -39.8 M-24.25 -29.15 L-26.65 -32.1 -31.0 -38.05 -32.45 -40.0 -33.8 -41.5 -35.65 -43.25 -38.15 -45.5 -40.45 -47.9 M-12.35 -14.6 Q-15.85 -16.8 -17.6 -19.85 -19.2 -22.75 -21.4 -25.55 L-21.95 -26.25 -24.25 -29.15 M-12.35 -14.6 L-0.6 29.75 6.9 69.9" fill="none" stroke="#000000" stroke-linecap="round" stroke-linejoin="round" stroke-width="2.0"/>
      <path d="M2.4 -62.2 L-1.25 -64.9 -7.0 -62.6 M3.0 -61.75 L2.4 -62.2 M-28.0 -14.85 L-28.2 -15.5 Q-31.25 -25.75 -34.95 -35.85 L-29.95 -29.75 -16.05 -12.9 Q-13.0 -3.15 -10.25 6.6 -5.0 25.4 -0.95 44.25 L0.9 53.15 -6.9 41.35 -10.5 35.95 -10.5 35.9 M-29.95 -29.75 Q-27.35 -23.1 -25.2 -16.2 L-24.95 -15.45 Q-22.95 -9.0 -21.35 -2.35 L-18.95 8.55 -17.35 17.95 -16.85 21.65 -7.65 34.7 -3.7 40.3 -0.95 44.25 M-24.15 -0.9 L-21.8 9.0 M-24.15 -0.9 L-28.0 -14.85 M-16.85 21.65 L-19.05 22.95 -10.5 35.9 M-19.05 22.95 L-19.8 18.75 -21.8 9.0" fill="none" stroke="#000000" stroke-linecap="round" stroke-linejoin="round" stroke-width="2.0"/>
    </g>
    <linearGradient gradientTransform="matrix(-0.0029, -0.0047, 0.0278, -0.0173, -4.85, -45.7)" gradientUnits="userSpaceOnUse" id="gradient0" spreadMethod="pad" x1="-819.2" x2="819.2">
      <stop offset="0.0" stop-color="#a2a5ac"/>
      <stop offset="1.0" stop-color="#d1d2d7"/>
    </linearGradient>
    <linearGradient gradientTransform="matrix(0.008, 0.025, -0.0307, 0.0099, 20.3, 0.75)" gradientUnits="userSpaceOnUse" id="gradient1" spreadMethod="pad" x1="-819.2" x2="819.2">
      <stop offset="0.4627450980392157" stop-color="#6f7782"/>
      <stop offset="1.0" stop-color="#8d979c"/>
    </linearGradient>
    <g id="sprite1" transform="matrix(1.0, 0.0, 0.0, 1.0, 21.3, 26.9)">
      <use height="53.8" transform="matrix(1.0, 0.0, 0.0, 1.0, -21.3, -26.9)" width="42.6" xlink:href="#shape1"/>
    </g>
    <g id="shape1" transform="matrix(1.0, 0.0, 0.0, 1.0, 21.3, 26.9)">
      <path d="M-10.45 -13.0 Q-10.4 -12.05 -9.4 -11.2 -7.8 -9.9 -5.85 -9.7 L-2.2 -9.05 Q-0.85 -8.7 0.3 -7.8 L0.75 -6.3 0.75 -5.35 0.75 -3.85 0.35 -3.15 0.05 -2.1 -1.3 -0.55 -1.75 0.05 -2.2 1.55 Q-3.05 3.0 -2.55 4.85 L-2.0 5.5 Q-0.9 6.15 0.4 6.35 L2.2 4.75 Q3.65 3.65 5.65 3.8 6.3 3.85 6.4 3.55 6.9 1.6 8.25 0.8 9.7 1.9 10.2 3.35 L9.35 3.7 7.85 4.25 3.9 4.6 3.65 4.65 Q2.9 5.1 2.25 5.6 L1.9 5.95 -0.5 9.45 -0.8 9.7 -1.1 10.3 -2.15 11.2 -4.95 13.15 Q-6.75 14.4 -8.85 14.95 L-8.9 14.95 -8.85 15.0 -6.95 17.6 -6.55 18.05 -6.55 18.15 -6.5 18.1 -3.8 20.0 -4.75 20.0 Q-6.9 20.0 -8.9 19.3 L-9.3 18.65 Q-9.95 17.5 -10.95 16.6 L-12.2 15.35 Q-13.15 14.25 -14.4 13.45 -17.05 11.85 -20.25 12.4 -20.2 10.95 -19.05 10.05 -18.0 9.3 -16.6 9.2 -14.45 9.1 -13.05 10.15 -11.55 11.25 -10.35 12.8 L-9.85 13.45 -6.8 12.85 Q-5.05 12.4 -3.7 10.9 L-3.0 10.15 -2.65 9.8 -2.25 9.35 -1.15 8.1 -1.35 7.95 Q-3.5 6.95 -5.25 5.45 L-5.35 5.0 -5.75 4.1 -5.85 3.6 -6.15 2.35 -6.0 2.2 -3.2 -0.3 -2.35 -1.25 -1.65 -2.15 Q-1.15 -2.5 -1.1 -3.05 L-0.95 -4.45 Q-0.8 -6.05 -1.9 -7.1 -3.25 -8.4 -5.0 -8.95 L-6.3 -9.3 Q-8.45 -9.7 -10.4 -10.65 L-11.4 -11.05 Q-12.9 -11.45 -14.0 -12.35 L-14.0 -12.4 Q-13.95 -14.4 -13.15 -15.9 -12.6 -17.0 -11.6 -17.7 L-11.3 -17.9 -11.35 -17.6 -11.5 -16.3 Q-11.7 -14.5 -10.6 -13.15 L-10.45 -13.0 M4.55 8.85 L7.05 9.85 Q8.75 10.45 10.3 11.35 11.85 12.3 12.85 13.85 L12.9 13.9 11.15 17.6 9.7 18.4 Q10.35 16.15 9.05 14.15 L8.75 13.8 Q7.3 12.45 5.45 11.55 L5.05 11.35 3.0 10.15 4.55 8.85 M0.4 6.35 L-0.5 7.35 -1.15 8.1 -0.5 7.35 0.4 6.35 M-9.85 13.45 L-8.85 14.95 -9.85 13.45 M-2.65 9.8 L-2.6 9.8 -2.65 9.8" fill="#cc0000" fill-rule="evenodd" stroke="none"/>
      <path d="M-11.3 -17.9 Q-9.95 -18.85 -8.7 -20.0 L-5.95 -22.45 Q-4.65 -23.65 -3.2 -24.45 -1.55 -25.3 0.15 -25.8 L0.45 -25.9 1.15 -23.7 Q0.05 -22.85 -1.2 -22.3 L-2.4 -21.85 -5.7 -20.3 Q-7.35 -19.3 -8.3 -17.6 L-10.1 -14.4 -10.45 -13.0 -10.6 -13.15 Q-11.7 -14.5 -11.5 -16.3 L-11.35 -17.6 -11.3 -17.9 M0.3 -7.8 Q1.9 -6.6 1.75 -4.5 1.6 -2.55 0.0 -1.1 -1.2 -0.05 -2.05 1.25 L-2.2 1.55 -1.75 0.05 -1.3 -0.55 0.05 -2.1 0.35 -3.15 0.75 -3.85 0.75 -5.35 0.75 -6.3 0.3 -7.8 M5.95 7.0 Q4.1 6.35 3.1 8.25 L3.9 8.55 4.55 8.85 3.0 10.15 5.05 11.35 5.45 11.55 Q7.3 12.45 8.75 13.8 L9.05 14.15 Q10.35 16.15 9.7 18.4 L11.15 17.6 12.9 13.9 Q13.8 15.35 13.75 17.4 L13.75 17.75 Q13.15 18.15 12.8 19.0 L10.5 20.9 9.75 21.5 Q7.55 23.2 4.8 22.75 L4.0 22.65 -6.7 22.35 -6.85 22.35 -9.7 20.4 -11.55 18.75 -12.35 18.1 -12.35 18.05 -12.8 17.05 Q-13.35 15.85 -14.25 14.85 -15.05 14.0 -16.05 13.6 L-17.65 13.25 -17.75 13.25 Q-18.5 13.3 -18.7 14.05 -19.15 15.7 -17.4 15.7 L-16.8 16.05 -16.25 16.35 -15.7 17.9 Q-17.5 17.65 -18.8 16.35 -20.05 15.05 -20.25 13.25 L-20.25 12.4 Q-17.05 11.85 -14.4 13.45 -13.15 14.25 -12.2 15.35 L-10.95 16.6 Q-9.95 17.5 -9.3 18.65 L-8.9 19.3 Q-6.9 20.0 -4.75 20.0 L-3.8 20.0 -3.5 20.15 Q-1.8 20.9 -0.05 21.25 L3.9 21.45 4.7 21.35 7.35 20.65 Q9.0 20.1 9.45 18.5 L9.55 18.0 Q9.8 15.9 8.0 14.75 L5.0 12.9 1.95 11.5 1.2 11.25 0.75 11.9 -1.05 14.0 Q-2.3 15.25 -3.85 16.25 -5.3 17.15 -6.95 17.6 L-8.85 15.0 -8.9 14.95 -8.85 14.95 -8.85 15.0 -8.85 14.95 Q-6.75 14.4 -4.95 13.15 L-2.15 11.2 -1.1 10.3 -0.8 9.7 -0.5 9.45 1.9 5.95 2.25 5.6 Q2.9 5.1 3.65 4.65 L3.9 4.6 7.85 4.25 9.35 3.7 10.2 3.35 Q10.55 4.45 10.35 5.75 L10.1 5.8 Q9.85 5.85 9.7 6.0 8.2 7.15 6.35 7.0 L5.95 7.0 M-2.25 9.35 L-4.7 8.25 Q-6.3 7.35 -6.9 5.65 -7.55 3.75 -6.15 2.35 L-5.85 3.6 -5.75 4.1 -5.35 5.0 -5.25 5.45 Q-3.5 6.95 -1.35 7.95 L-1.15 8.1 -2.25 9.35 M-2.35 -1.25 Q-1.65 -2.4 -1.65 -3.8 -1.65 -5.85 -3.7 -6.5 L-7.15 -7.55 -10.65 -8.3 Q-12.55 -8.6 -13.45 -10.0 -14.05 -11.05 -14.0 -12.35 -12.9 -11.45 -11.4 -11.05 L-10.4 -10.65 Q-8.45 -9.7 -6.3 -9.3 L-5.0 -8.95 Q-3.25 -8.4 -1.9 -7.1 -0.8 -6.05 -0.95 -4.45 L-1.1 -3.05 Q-1.15 -2.5 -1.65 -2.15 L-2.35 -1.25 M-6.5 18.1 L-6.55 18.15 -6.55 18.05 -6.5 18.1 M3.1 8.25 L3.0 8.35 2.2 9.8 1.2 11.25 2.2 9.8 3.0 8.35 3.1 8.25 M-2.65 9.8 L-2.6 9.8 -2.65 9.8" fill="#990000" fill-rule="evenodd" stroke="none"/>
      <path d="M9.65 7.85 L5.95 7.0 6.35 7.0 Q8.2 7.15 9.7 6.0 9.85 5.85 10.1 5.8 L10.35 5.75 9.65 7.85 M13.75 17.75 L13.3 21.3 13.0 21.95 Q11.75 23.45 10.25 24.3 8.75 25.15 7.05 25.6 L3.3 25.85 -0.35 25.25 Q-2.25 24.8 -3.85 23.9 L-6.85 22.35 -6.7 22.35 4.0 22.65 4.8 22.75 Q7.55 23.2 9.75 21.5 L10.5 20.9 12.8 19.0 Q13.15 18.15 13.75 17.75 M-12.35 18.05 L-15.65 17.9 -15.7 17.9 -16.25 16.35 -16.8 16.05 -17.4 15.7 Q-19.15 15.7 -18.7 14.05 -18.5 13.3 -17.75 13.25 L-17.65 13.25 -16.05 13.6 Q-15.05 14.0 -14.25 14.85 -13.35 15.85 -12.8 17.05 L-12.35 18.05" fill="#660000" fill-rule="evenodd" stroke="none"/>
      <path d="M20.25 0.25 Q20.4 1.25 20.15 2.45 L19.45 4.2 9.65 7.85 10.35 5.75 Q10.55 4.45 10.2 3.35 11.15 2.9 12.2 2.6 L20.25 0.25" fill="#585b62" fill-rule="evenodd" stroke="none"/>
      <path d="M8.25 0.8 L17.9 -3.1 Q19.95 -1.75 20.25 0.25 L12.2 2.6 Q11.15 2.9 10.2 3.35 9.7 1.9 8.25 0.8" fill="#d1d2d7" fill-rule="evenodd" stroke="none"/>
      <path d="M-11.3 -17.9 Q-9.95 -18.85 -8.7 -20.0 L-5.95 -22.45 Q-4.65 -23.65 -3.2 -24.45 -1.55 -25.3 0.15 -25.8 L0.45 -25.9 1.15 -23.7 Q0.05 -22.85 -1.2 -22.3 L-2.4 -21.85 -5.7 -20.3 Q-7.35 -19.3 -8.3 -17.6 L-10.1 -14.4 -10.45 -13.0 Q-10.4 -12.05 -9.4 -11.2 -7.8 -9.9 -5.85 -9.7 L-2.2 -9.05 Q-0.85 -8.7 0.3 -7.8 1.9 -6.6 1.75 -4.5 1.6 -2.55 0.0 -1.1 -1.2 -0.05 -2.05 1.25 L-2.2 1.55 Q-3.05 3.0 -2.55 4.85 L-2.0 5.5 Q-0.9 6.15 0.4 6.35 L2.2 4.75 Q3.65 3.65 5.65 3.8 6.3 3.85 6.4 3.55 6.9 1.6 8.25 0.8 L17.9 -3.1 Q19.95 -1.75 20.25 0.25 20.4 1.25 20.15 2.45 L19.45 4.2 9.65 7.85 5.95 7.0 Q4.1 6.35 3.1 8.25 L3.9 8.55 4.55 8.85 7.05 9.85 Q8.75 10.45 10.3 11.35 11.85 12.3 12.85 13.85 L12.9 13.9 Q13.8 15.35 13.75 17.4 L13.75 17.75 13.3 21.3 13.0 21.95 Q11.75 23.45 10.25 24.3 8.75 25.15 7.05 25.6 L3.3 25.85 -0.35 25.25 Q-2.25 24.8 -3.85 23.9 L-6.85 22.35 -9.7 20.4 -11.55 18.75 -12.35 18.1 -12.35 18.05 -15.65 17.9 -15.7 17.9 Q-17.5 17.65 -18.8 16.35 -20.05 15.05 -20.25 13.25 L-20.25 12.4 Q-20.2 10.95 -19.05 10.05 -18.0 9.3 -16.6 9.2 -14.45 9.1 -13.05 10.15 -11.55 11.25 -10.35 12.8 L-9.85 13.45 -6.8 12.85 Q-5.05 12.4 -3.7 10.9 L-3.0 10.15 -2.65 9.8 -2.25 9.35 -4.7 8.25 Q-6.3 7.35 -6.9 5.65 -7.55 3.75 -6.15 2.35 L-6.0 2.2 -3.2 -0.3 -2.35 -1.25 Q-1.65 -2.4 -1.65 -3.8 -1.65 -5.85 -3.7 -6.5 L-7.15 -7.55 -10.65 -8.3 Q-12.55 -8.6 -13.45 -10.0 -14.05 -11.05 -14.0 -12.35 L-14.0 -12.4 Q-13.95 -14.4 -13.15 -15.9 -12.6 -17.0 -11.6 -17.7 L-11.3 -17.9 M-1.15 8.1 L-0.5 7.35 0.4 6.35 M-3.8 20.0 L-6.5 18.1 M-6.55 18.05 L-6.95 17.6 -8.85 15.0 M-8.85 14.95 L-9.85 13.45 M-8.85 14.95 L-8.85 15.0 M1.2 11.25 L2.2 9.8 3.0 8.35 3.1 8.25 M-1.15 8.1 L-2.25 9.35 M-3.8 20.0 L-3.5 20.15 Q-1.8 20.9 -0.05 21.25 L3.9 21.45 4.7 21.35 7.35 20.65 Q9.0 20.1 9.45 18.5 L9.55 18.0 Q9.8 15.9 8.0 14.75 L5.0 12.9 1.95 11.5 1.2 11.25 0.75 11.9 -1.05 14.0 Q-2.3 15.25 -3.85 16.25 -5.3 17.15 -6.95 17.6 M8.25 0.8 Q9.7 1.9 10.2 3.35 M10.35 5.75 Q10.55 4.45 10.2 3.35 M10.35 5.75 L9.65 7.85 M-17.65 13.25 L-16.05 13.6 Q-15.05 14.0 -14.25 14.85 -13.35 15.85 -12.8 17.05 L-12.35 18.05 M-6.55 18.05 L-6.5 18.1" fill="none" stroke="#000000" stroke-linecap="round" stroke-linejoin="round" stroke-width="2.0"/>
    </g>
  </defs>
</svg>
